<svg width="50" height="50" viewBox="0 0 50 50" fill="none" xmlns="http://www.w3.org/2000/svg">
<rect width="50" height="50" rx="25" fill="#2C2C2C"/>
<g clip-path="url(#clip0_22_4953)">
<path d="M29.5 23.5H34L31.75 20.5L29.5 23.5ZM29.5 26.5H34L31.75 29.5L29.5 26.5Z" fill="#5667FF"/>
<path d="M16.75 16H21.25V34H16.75C16.5511 34 16.3603 33.921 16.2197 33.7803C16.079 33.6397 16 33.4489 16 33.25V16.75C16 16.5511 16.079 16.3603 16.2197 16.2197C16.3603 16.079 16.5511 16 16.75 16Z" fill="#5667FF"/>
<path d="M22.75 16H27.25C27.4489 16 27.6397 16.079 27.7803 16.2197C27.921 16.3603 28 16.5511 28 16.75V33.25C28 33.4489 27.921 33.6397 27.7803 33.7803C27.6397 33.921 27.4489 34 27.25 34H22.75V16Z" fill="#FF6250"/>
</g>
<defs>
<clipPath id="clip0_22_4953">
<rect width="18" height="18" fill="white" transform="translate(16 16)"/>
</clipPath>
</defs>
</svg>
