<svg id="eVlCmdxMEUy1" xmlns="http://www.w3.org/2000/svg" xmlns:xlink="http://www.w3.org/1999/xlink" viewBox="0 0 1267 1267" shape-rendering="geometricPrecision" text-rendering="geometricPrecision">
<style><![CDATA[
#eVlCmdxMEUy3_tr {animation: eVlCmdxMEUy3_tr__tr 10000ms linear infinite normal forwards}@keyframes eVlCmdxMEUy3_tr__tr { 0% {transform: translate(633.193375px,633.261948px) rotate(0deg)} 100% {transform: translate(633.193375px,633.261948px) rotate(359.438897deg)}} #eVlCmdxMEUy10_to {animation: eVlCmdxMEUy10_to__to 10000ms linear infinite normal forwards}@keyframes eVlCmdxMEUy10_to__to { 0% {offset-distance: 0%} 26% {offset-distance: 25%} 50% {offset-distance: 50%} 75% {offset-distance: 75%} 100% {offset-distance: 100%}} #eVlCmdxMEUy30_to {animation: eVlCmdxMEUy30_to__to 10000ms linear infinite normal forwards}@keyframes eVlCmdxMEUy30_to__to { 0% {offset-distance: 0%} 25% {offset-distance: 25%} 50% {offset-distance: 50%} 75% {offset-distance: 75%} 100% {offset-distance: 100%}} #eVlCmdxMEUy38_tr {animation: eVlCmdxMEUy38_tr__tr 10000ms linear infinite normal forwards}@keyframes eVlCmdxMEUy38_tr__tr { 0% {transform: translate(630.763px,638.764038px) rotate(-0.452821deg)} 100% {transform: translate(630.763px,638.764038px) rotate(-359.995106deg)}}
]]></style>
<defs><linearGradient id="eVlCmdxMEUy2-fill" x1="633.263" y1="178.764" x2="633.263" y2="1087.76" spreadMethod="pad" gradientUnits="userSpaceOnUse" gradientTransform="translate(0 0)"><stop id="eVlCmdxMEUy2-fill-0" offset="0%" stop-color="#d9d9d9"/><stop id="eVlCmdxMEUy2-fill-1" offset="100%" stop-color="rgba(217,217,217,0.81)"/></linearGradient><linearGradient id="eVlCmdxMEUy13-fill" x1="811.066" y1="214.986" x2="455.46" y2="1051.54" spreadMethod="pad" gradientUnits="userSpaceOnUse" gradientTransform="translate(0 0)"><stop id="eVlCmdxMEUy13-fill-0" offset="0%" stop-color="#d9d9d9"/><stop id="eVlCmdxMEUy13-fill-1" offset="100%" stop-color="rgba(217,217,217,0.81)"/></linearGradient><linearGradient id="eVlCmdxMEUy17-fill" x1="1082.14" y1="562.003" x2="184.384" y2="704.524" spreadMethod="pad" gradientUnits="userSpaceOnUse" gradientTransform="translate(0 0)"><stop id="eVlCmdxMEUy17-fill-0" offset="0%" stop-color="#d9d9d9"/><stop id="eVlCmdxMEUy17-fill-1" offset="100%" stop-color="rgba(217,217,217,0.81)"/></linearGradient><linearGradient id="eVlCmdxMEUy21-fill" x1="1004.94" y1="894.855" x2="261.591" y2="371.672" spreadMethod="pad" gradientUnits="userSpaceOnUse" gradientTransform="translate(0 0)"><stop id="eVlCmdxMEUy21-fill-0" offset="0%" stop-color="#d9d9d9"/><stop id="eVlCmdxMEUy21-fill-1" offset="100%" stop-color="rgba(217,217,217,0.81)"/></linearGradient><linearGradient id="eVlCmdxMEUy25-fill" x1="869.867" y1="1021.32" x2="396.66" y2="245.205" spreadMethod="pad" gradientUnits="userSpaceOnUse" gradientTransform="translate(0 0)"><stop id="eVlCmdxMEUy25-fill-0" offset="0%" stop-color="#d9d9d9"/><stop id="eVlCmdxMEUy25-fill-1" offset="100%" stop-color="rgba(217,217,217,0.81)"/></linearGradient><linearGradient id="eVlCmdxMEUy29-fill" x1="544.204" y1="1078.95" x2="722.324" y2="187.575" spreadMethod="pad" gradientUnits="userSpaceOnUse" gradientTransform="translate(0 0)"><stop id="eVlCmdxMEUy29-fill-0" offset="0%" stop-color="#d9d9d9"/><stop id="eVlCmdxMEUy29-fill-1" offset="100%" stop-color="rgba(217,217,217,0.81)"/></linearGradient><linearGradient id="eVlCmdxMEUy33-fill" x1="0" y1="-162.5" x2="0" y2="162.5" spreadMethod="pad" gradientUnits="userSpaceOnUse" gradientTransform="translate(0 0)"><stop id="eVlCmdxMEUy33-fill-0" offset="0%" stop-color="#d9d9d9"/><stop id="eVlCmdxMEUy33-fill-1" offset="100%" stop-color="rgba(217,217,217,0.81)"/></linearGradient><linearGradient id="eVlCmdxMEUy37-stroke" x1="0" y1="-319" x2="0" y2="319" spreadMethod="pad" gradientUnits="userSpaceOnUse" gradientTransform="translate(0 0)"><stop id="eVlCmdxMEUy37-stroke-0" offset="0%" stop-color="#d9d9d9"/><stop id="eVlCmdxMEUy37-stroke-1" offset="100%" stop-color="#d9d9d9"/></linearGradient></defs><path d="M1076.4,633.264c6.28,0,11.38-5.089,11.22-11.363-2.67-107-43.04-209.769-114.188-290.06-73.66-83.129-175.211-136.408-285.472-149.774-110.262-13.367-221.601,14.105-312.991,77.225C286.7,320.258,222.944,410.404,194.781,513.666c-1.651,6.054,2.087,12.215,8.18,13.714v0c6.094,1.5,12.235-2.231,13.894-8.283c26.831-97.869,87.33-183.297,171.029-241.106c86.82-59.965,192.593-86.063,297.341-73.364c104.748,12.698,201.221,63.313,271.199,142.286c67.466,76.134,105.796,173.542,108.466,274.988.16,6.273,5.24,11.363,11.51,11.363v0Z" fill="url(#eVlCmdxMEUy2-fill)" fill-opacity="0.12"/><g id="eVlCmdxMEUy3_tr" transform="translate(633.193375,633.261948) rotate(0)"><g transform="translate(-633.193374,-633.261947)"><path d="M1076.4,633.264c6.28,0,11.38-5.089,11.22-11.363-2.67-107-43.04-209.769-114.188-290.06-73.66-83.129-175.211-136.408-285.472-149.774-110.262-13.367-221.601,14.105-312.991,77.225C286.7,320.258,222.944,410.404,194.781,513.666c-1.651,6.054,2.087,12.215,8.18,13.714v0c6.094,1.5,12.235-2.231,13.894-8.283c26.831-97.869,87.33-183.297,171.029-241.106c86.82-59.965,192.593-86.063,297.341-73.364c104.748,12.698,201.221,63.313,271.199,142.286c67.466,76.134,105.796,173.542,108.466,274.988.16,6.273,5.24,11.363,11.51,11.363v0Z" fill="#7b76ff" fill-opacity="0.6"/><path d="M1041.08,806.621c5.78,2.455,12.46-.231,14.77-6.066c17.47-44.115,27.92-90.693,30.97-138.041.4-6.262-4.49-11.548-10.76-11.795v0c-6.27-.247-11.54,4.638-11.95,10.899-2.94,44.596-12.78,88.467-29.18,130.044-2.3,5.838.38,12.504,6.15,14.959v0Z" fill="#d270eb" fill-opacity="0.6"/><path d="M702.742,1070.92c.984,6.2,6.81,10.44,12.981,9.3c68.511-12.64,133.254-40.87,189.19-82.571c55.935-41.7,101.477-95.686,133.157-157.736c2.85-5.59.45-12.384-5.21-15.096v0c-5.66-2.713-12.43-.317-15.29,5.269-30.083,58.735-73.253,109.842-126.24,149.344-52.987,39.5-114.293,66.28-179.172,78.34-6.169,1.15-10.4,6.95-9.416,13.15v0Z" fill="#ee4593" fill-opacity="0.6"/><path d="M378.212,995.644c-3.612,5.136-2.387,12.236,2.834,15.716c85.892,57.3,188.753,83.64,291.614,74.69c6.252-.54,10.74-6.18,10.04-12.42v0c-.7-6.23-6.323-10.7-12.576-10.17-97.34,8.34-194.65-16.58-275.994-70.69-5.225-3.476-12.306-2.258-15.918,2.874v0Z" fill="#ade7ff" fill-opacity="0.6"/><path d="M254.907,863.952c-5.358,3.266-7.065,10.267-3.666,15.541c25.705,39.88,57.496,75.49,94.217,105.534c4.857,3.974,12.005,3.069,15.856-1.886v0c3.851-4.955,2.946-12.082-1.905-16.062-34.553-28.346-64.496-61.886-88.758-99.42-3.407-5.27-10.386-6.974-15.744-3.707v0Z" fill="#6b98fd" fill-opacity="0.6"/><path d="M198.717,546.43c-6.154-1.23-12.154,2.761-13.229,8.944-16.768,96.384-1.982,195.62,42.154,282.93c2.831,5.6,9.734,7.669,15.262,4.698v0c5.528-2.97,7.587-9.854,4.763-15.458-41.645-82.652-55.63-176.514-39.888-267.716c1.068-6.184-2.908-12.168-9.062-13.398v0Z" fill="#2764ff" fill-opacity="0.6"/></g></g><g id="eVlCmdxMEUy10_to" style="offset-path:path('M641.040377,31.489133C977.273746,37.920528,1244.631072,315.705206,1238.199676,651.938576C1231.768281,988.171945,953.983603,1255.529271,617.750234,1249.097875C281.516864,1242.66648,14.159539,964.881802,20.590934,628.648433C27.02233,292.415063,304.807007,25.057738,641.040377,31.489133');offset-rotate:0deg"><g transform="translate(-233.100052,-205.113502)"><path d="M104.624,218.166h-1.994c-.077-.426-.22-.801-.429-1.125s-.464-.599-.767-.824c-.302-.226-.641-.397-1.016-.512-.371-.115-.765-.172-1.1826-.172-.7543,0-1.4297.189-2.0263.569-.5923.379-1.0611.935-1.4063,1.668-.3409.733-.5113,1.628-.5113,2.685c0,1.065.1704,1.964.5113,2.697.3452.733.8161,1.287,1.4127,1.662s1.2677.562,2.0135.562c.4133,0,.805-.055,1.176-.166.375-.115.714-.283,1.016-.505.303-.221.559-.492.767-.812.214-.323.361-.694.442-1.112l1.994.007c-.107.643-.313,1.235-.62,1.777-.303.537-.693,1.001-1.17,1.393-.473.388-1.014.688-1.623.901-.61.213-1.2746.32-1.9948.32-1.1335,0-2.1435-.268-3.0298-.805-.8864-.542-1.5853-1.315-2.0966-2.321-.5071-1.005-.7607-2.205-.7607-3.598c0-1.398.2557-2.598.7671-3.599.5113-1.006,1.2102-1.777,2.0965-2.314.8864-.541,1.8942-.812,3.0235-.812.6946,0,1.3428.1,1.9428.301.605.196,1.149.485,1.63.869.482.379.88.844,1.196,1.393.315.546.528,1.17.639,1.873Zm5.986,9.032c-.921,0-1.724-.211-2.41-.633s-1.219-1.012-1.598-1.77c-.38-.759-.569-1.645-.569-2.659c0-1.019.189-1.909.569-2.672.379-.763.912-1.355,1.598-1.777s1.489-.633,2.41-.633c.92,0,1.723.211,2.409.633s1.219,1.014,1.598,1.777c.38.763.569,1.653.569,2.672c0,1.014-.189,1.9-.569,2.659-.379.758-.912,1.348-1.598,1.77s-1.489.633-2.409.633Zm.006-1.604c.597,0,1.091-.158,1.483-.473.392-.316.682-.735.869-1.259.192-.525.288-1.102.288-1.733c0-.626-.096-1.201-.288-1.726-.187-.528-.477-.952-.869-1.272-.392-.319-.886-.479-1.483-.479-.601,0-1.099.16-1.496.479-.392.32-.684.744-.875,1.272-.188.525-.282,1.1-.282,1.726c0,.631.094,1.208.282,1.733.191.524.483.943.875,1.259.397.315.895.473,1.496.473ZM116.96,227v-9.818h1.834v1.598h.122c.204-.541.539-.963,1.003-1.266.465-.307,1.021-.46,1.668-.46.657,0,1.206.153,1.65.46.447.307.777.729.99,1.266h.103c.234-.524.607-.942,1.118-1.253.512-.315,1.121-.473,1.828-.473.891,0,1.618.279,2.18.837.567.559.85,1.4.85,2.525v6.584h-1.911v-6.405c0-.665-.181-1.146-.543-1.444-.363-.299-.795-.448-1.298-.448-.622,0-1.106.192-1.451.575-.345.38-.518.868-.518,1.464v6.258h-1.905v-6.526c0-.533-.166-.961-.498-1.285s-.765-.486-1.298-.486c-.362,0-.696.096-1.003.288-.303.187-.548.449-.735.786-.184.337-.275.727-.275,1.17v6.053h-1.911Zm15.548,0v-9.818h1.834v1.598h.122c.204-.541.539-.963,1.003-1.266.465-.307,1.021-.46,1.669-.46.656,0,1.206.153,1.649.46.447.307.777.729.991,1.266h.102c.234-.524.607-.942,1.118-1.253.512-.315,1.121-.473,1.829-.473.89,0,1.617.279,2.179.837.567.559.85,1.4.85,2.525v6.584h-1.911v-6.405c0-.665-.181-1.146-.543-1.444-.362-.299-.795-.448-1.298-.448-.622,0-1.106.192-1.451.575-.345.38-.517.868-.517,1.464v6.258h-1.905v-6.526c0-.533-.167-.961-.499-1.285s-.765-.486-1.297-.486c-.363,0-.697.096-1.004.288-.303.187-.548.449-.735.786-.183.337-.275.727-.275,1.17v6.053h-1.911Zm21.767-4.072v-5.746h1.918v9.818h-1.879v-1.7h-.102c-.226.524-.589.961-1.087,1.31-.494.345-1.11.518-1.847.518-.631,0-1.189-.139-1.675-.416-.482-.281-.861-.696-1.138-1.246-.273-.55-.409-1.229-.409-2.039v-6.245h1.911v6.015c0,.669.186,1.201.556,1.598.371.396.853.594,1.445.594.358,0,.714-.089,1.067-.268.358-.179.655-.45.889-.812.239-.362.356-.822.351-1.381Zm6.037-1.758v5.83h-1.911v-9.818h1.835v1.598h.121c.226-.52.58-.938,1.061-1.253.486-.315,1.097-.473,1.835-.473.669,0,1.255.141,1.757.422.503.277.893.69,1.17,1.24s.416,1.229.416,2.039v6.245h-1.912v-6.015c0-.712-.185-1.268-.556-1.668-.37-.405-.88-.607-1.527-.607-.444,0-.838.095-1.183.287-.341.192-.611.473-.812.844-.196.366-.294.81-.294,1.329Zm8.487,5.83v-9.818h1.911v9.818h-1.911Zm.965-11.333c-.332,0-.618-.111-.856-.332-.235-.226-.352-.495-.352-.806c0-.315.117-.584.352-.805.238-.226.524-.339.856-.339s.616.113.85.339c.239.221.358.49.358.805c0,.311-.119.58-.358.806-.234.221-.518.332-.85.332Zm7.74,1.515v1.534h-5.363v-1.534h5.363Zm-3.924-2.352h1.911v9.287c0,.371.055.65.166.838.111.183.254.308.428.377.179.064.373.096.582.096.153,0,.288-.011.403-.032.115-.022.204-.039.268-.052l.345,1.579c-.11.043-.268.086-.473.128-.204.047-.46.073-.767.077-.502.008-.971-.081-1.406-.269-.435-.187-.786-.477-1.055-.869-.268-.392-.402-.884-.402-1.477v-9.683Zm6.887,15.852c-.286,0-.546-.024-.78-.07-.235-.043-.409-.09-.524-.141l.46-1.566c.349.094.66.134.933.121s.514-.115.722-.307c.214-.191.401-.505.563-.939l.236-.652-3.592-9.946h2.046l2.486,7.619h.102l2.487-7.619h2.052l-4.046,11.128c-.188.512-.427.944-.716,1.298-.29.358-.635.626-1.036.805-.4.179-.865.269-1.393.269ZM193.651,227v-13.091h4.666c1.019,0,1.862.185,2.531.556s1.17.878,1.503,1.522c.332.639.498,1.359.498,2.16c0,.805-.168,1.53-.505,2.173-.332.64-.835,1.147-1.508,1.522-.669.37-1.511.556-2.525.556h-3.209v-1.675h3.03c.643,0,1.165-.111,1.566-.332.4-.226.694-.533.882-.921.187-.388.281-.829.281-1.323s-.094-.933-.281-1.317c-.188-.383-.484-.684-.889-.901-.4-.217-.929-.326-1.585-.326h-2.48v11.397h-1.975Zm12.911-13.091v13.091h-1.911v-13.091h1.911Zm5.069,13.308c-.622,0-1.185-.115-1.688-.345-.502-.234-.901-.573-1.195-1.016-.29-.443-.435-.987-.435-1.63c0-.554.107-1.01.32-1.368s.501-.641.863-.85.767-.367,1.214-.473c.448-.107.904-.188,1.368-.243.588-.068,1.066-.124,1.432-.166.367-.047.633-.122.799-.224s.249-.268.249-.499v-.044c0-.559-.157-.991-.473-1.298-.311-.307-.775-.46-1.393-.46-.643,0-1.151.143-1.521.428-.367.281-.62.595-.761.94l-1.796-.409c.213-.597.524-1.078.933-1.445.413-.371.889-.639,1.426-.805.536-.171,1.101-.256,1.693-.256.392,0,.808.047,1.247.141.443.089.856.255,1.24.498.388.243.705.59.952,1.042.248.448.371,1.029.371,1.745v6.52h-1.866v-1.342h-.077c-.124.247-.309.49-.556.728-.247.239-.565.437-.953.595-.387.157-.852.236-1.393.236Zm.415-1.534c.529,0,.981-.104,1.356-.313.379-.209.666-.482.862-.818.201-.341.301-.705.301-1.093v-1.266c-.068.068-.2.132-.396.192-.192.055-.412.104-.659.147-.247.038-.488.075-.722.109-.235.029-.431.055-.588.076-.371.047-.71.126-1.017.237-.302.111-.545.27-.728.479-.179.205-.269.478-.269.818c0,.473.175.831.524,1.074.35.239.795.358,1.336.358Zm7.472,4.999c-.285,0-.545-.024-.78-.07-.234-.043-.409-.09-.524-.141l.461-1.566c.349.094.66.134.933.121.272-.013.513-.115.722-.307.213-.191.401-.505.563-.939l.236-.652-3.592-9.946h2.045l2.487,7.619h.102l2.486-7.619h2.052l-4.046,11.128c-.187.512-.426.944-.716,1.298-.29.358-.635.626-1.035.805-.401.179-.865.269-1.394.269ZM233.93,220.64v1.655h-5.804v-1.655h5.804Zm6.771-3.458v1.534h-5.363v-1.534h5.363Zm-3.925-2.352h1.911v9.287c0,.371.056.65.166.838.111.183.254.308.429.377.179.064.372.096.581.096.154,0,.288-.011.403-.032.115-.022.204-.039.268-.052l.346,1.579c-.111.043-.269.086-.473.128-.205.047-.461.073-.767.077-.503.008-.972-.081-1.407-.269-.434-.187-.786-.477-1.054-.869-.269-.392-.403-.884-.403-1.477v-9.683Zm9.709,12.368c-.921,0-1.724-.211-2.41-.633s-1.219-1.012-1.598-1.77c-.379-.759-.569-1.645-.569-2.659c0-1.019.19-1.909.569-2.672s.912-1.355,1.598-1.777s1.489-.633,2.41-.633c.92,0,1.724.211,2.41.633s1.219,1.014,1.598,1.777.569,1.653.569,2.672c0,1.014-.19,1.9-.569,2.659-.379.758-.912,1.348-1.598,1.77s-1.49.633-2.41.633Zm.006-1.604c.597,0,1.091-.158,1.483-.473.392-.316.682-.735.87-1.259.191-.525.287-1.102.287-1.733c0-.626-.096-1.201-.287-1.726-.188-.528-.478-.952-.87-1.272-.392-.319-.886-.479-1.483-.479-.601,0-1.099.16-1.495.479-.392.32-.684.744-.876,1.272-.188.525-.281,1.1-.281,1.726c0,.631.093,1.208.281,1.733.192.524.484.943.876,1.259.396.315.894.473,1.495.473Zm12.129-4.954v1.655h-5.804v-1.655h5.804Zm2.34,6.36v-13.091h8.208v1.7h-6.232v3.989h5.804v1.694h-5.804v4.008h6.309v1.7h-8.285Zm13.19.217c-.622,0-1.185-.115-1.688-.345-.502-.234-.901-.573-1.195-1.016-.29-.443-.434-.987-.434-1.63c0-.554.106-1.01.319-1.368s.501-.641.863-.85.767-.367,1.215-.473c.447-.107.903-.188,1.367-.243.588-.068,1.066-.124,1.432-.166.367-.047.633-.122.799-.224s.25-.268.25-.499v-.044c0-.559-.158-.991-.473-1.298-.312-.307-.776-.46-1.394-.46-.643,0-1.151.143-1.521.428-.367.281-.62.595-.761.94l-1.796-.409c.213-.597.524-1.078.933-1.445.414-.371.889-.639,1.426-.805.537-.171,1.101-.256,1.693-.256.393,0,.808.047,1.247.141.443.089.856.255,1.24.498.388.243.705.59.952,1.042.248.448.371,1.029.371,1.745v6.52h-1.866v-1.342h-.077c-.124.247-.309.49-.556.728-.247.239-.565.437-.953.595-.387.157-.852.236-1.393.236Zm.415-1.534c.529,0,.981-.104,1.356-.313.379-.209.666-.482.863-.818.2-.341.3-.705.3-1.093v-1.266c-.068.068-.2.132-.396.192-.192.055-.412.104-.659.147-.247.038-.488.075-.722.109-.234.029-.43.055-.588.076-.371.047-.71.126-1.016.237-.303.111-.546.27-.729.479-.179.205-.269.478-.269.818c0,.473.175.831.525,1.074.349.239.794.358,1.335.358ZM281.181,227v-9.818h1.847v1.559h.102c.179-.528.495-.943.946-1.246.456-.307.972-.46,1.547-.46.12,0,.26.004.422.013.166.008.296.019.39.032v1.828c-.077-.022-.213-.045-.409-.071-.196-.029-.392-.044-.588-.044-.452,0-.855.095-1.208.287-.35.188-.627.45-.831.786-.205.333-.307.712-.307,1.138v5.996h-1.911Zm8.459-5.83v5.83h-1.911v-9.818h1.835v1.598h.121c.226-.52.579-.938,1.061-1.253.486-.315,1.097-.473,1.835-.473.669,0,1.255.141,1.757.422.503.277.893.69,1.17,1.24s.416,1.229.416,2.039v6.245h-1.912v-6.015c0-.712-.185-1.268-.556-1.668-.37-.405-.88-.607-1.527-.607-.444,0-.838.095-1.183.287-.341.192-.611.473-.812.844-.196.366-.294.81-.294,1.329ZM302.684,227v-13.091h4.666c1.014,0,1.856.175,2.525.524.673.35,1.176.833,1.508,1.451.333.614.499,1.323.499,2.129c0,.801-.168,1.506-.505,2.116-.332.605-.835,1.076-1.508,1.412-.669.337-1.511.505-2.525.505h-3.535v-1.7h3.356c.639,0,1.159-.092,1.559-.275.405-.183.701-.45.889-.799.187-.349.281-.769.281-1.259c0-.495-.096-.923-.288-1.285-.187-.362-.483-.639-.888-.831-.401-.196-.927-.294-1.579-.294h-2.48v11.397h-1.975Zm6.462-5.906L312.381,227h-2.25l-3.171-5.906h2.186Zm8.735,6.104c-.968,0-1.801-.207-2.5-.62-.694-.417-1.231-1.003-1.611-1.758-.375-.758-.562-1.647-.562-2.665c0-1.006.187-1.892.562-2.659.38-.767.908-1.366,1.586-1.796.681-.431,1.478-.646,2.39-.646.554,0,1.091.092,1.611.275s.987.471,1.4.863.739.901.978,1.527c.239.623.358,1.379.358,2.27v.677h-7.805v-1.432h5.932c0-.502-.102-.948-.307-1.336-.204-.392-.492-.701-.863-.926-.366-.226-.797-.339-1.291-.339-.537,0-1.006.132-1.406.396-.396.26-.703.601-.921,1.023-.213.417-.319.871-.319,1.361v1.119c0,.656.115,1.214.345,1.675.234.46.56.811.978,1.054.418.239.905.358,1.464.358.362,0,.692-.051.99-.153.299-.107.557-.264.774-.473s.383-.467.498-.774l1.809.326c-.144.533-.404,1-.779,1.4-.371.397-.838.706-1.4.927-.559.217-1.196.326-1.911.326Zm8.083-.198l-2.889-9.818h1.975l1.924,7.21h.096l1.931-7.21h1.975l1.917,7.178h.096l1.911-7.178h1.976L333.993,227h-1.95l-1.994-7.089h-.147L327.908,227h-1.944Zm15.223.217c-.623,0-1.185-.115-1.688-.345-.503-.234-.901-.573-1.195-1.016-.29-.443-.435-.987-.435-1.63c0-.554.107-1.01.32-1.368s.5-.641.863-.85c.362-.209.767-.367,1.214-.473.448-.107.904-.188,1.368-.243.588-.068,1.065-.124,1.432-.166.366-.047.633-.122.799-.224s.249-.268.249-.499v-.044c0-.559-.157-.991-.473-1.298-.311-.307-.775-.46-1.393-.46-.644,0-1.151.143-1.522.428-.366.281-.62.595-.76.94l-1.796-.409c.213-.597.524-1.078.933-1.445.413-.371.888-.639,1.425-.805.537-.171,1.102-.256,1.694-.256.392,0,.808.047,1.247.141.443.089.856.255,1.24.498.387.243.705.59.952,1.042.247.448.371,1.029.371,1.745v6.52h-1.867v-1.342h-.076c-.124.247-.309.49-.557.728-.247.239-.564.437-.952.595-.388.157-.852.236-1.393.236Zm.415-1.534c.529,0,.98-.104,1.355-.313.379-.209.667-.482.863-.818.2-.341.301-.705.301-1.093v-1.266c-.069.068-.201.132-.397.192-.192.055-.411.104-.658.147-.247.038-.488.075-.722.109-.235.029-.431.055-.588.076-.371.047-.71.126-1.017.237-.302.111-.545.27-.729.479-.178.205-.268.478-.268.818c0,.473.175.831.524,1.074.35.239.795.358,1.336.358ZM348.217,227v-9.818h1.848v1.559h.102c.179-.528.494-.943.946-1.246.456-.307.972-.46,1.547-.46.119,0,.26.004.422.013.166.008.296.019.39.032v1.828c-.077-.022-.213-.045-.409-.071-.196-.029-.392-.044-.588-.044-.452,0-.855.095-1.209.287-.349.188-.626.45-.831.786-.204.333-.306.712-.306,1.138v5.996h-1.912Zm9.872.192c-.792,0-1.5-.203-2.122-.607-.618-.41-1.103-.991-1.457-1.746-.349-.758-.524-1.668-.524-2.729s.177-1.969.53-2.723c.358-.754.848-1.332,1.471-1.732.622-.401,1.327-.601,2.115-.601.61,0,1.1.102,1.47.307.375.2.665.434.87.703.209.268.371.505.486.709h.115v-4.864h1.911v13.091h-1.867v-1.528h-.159c-.115.209-.282.448-.499.716-.213.269-.507.503-.882.703-.375.201-.861.301-1.458.301Zm.422-1.63c.55,0,1.015-.145,1.394-.435.383-.294.673-.701.869-1.221.2-.52.301-1.125.301-1.815c0-.682-.098-1.279-.294-1.79s-.484-.91-.863-1.195c-.38-.286-.848-.428-1.407-.428-.575,0-1.054.149-1.438.447-.383.298-.673.705-.869,1.221-.192.516-.288,1.097-.288,1.745c0,.656.098,1.246.294,1.771.196.524.486.939.87,1.246.387.303.865.454,1.431.454Zm14.168-5.983l-1.732.307c-.073-.222-.188-.433-.346-.633-.153-.2-.362-.365-.626-.492-.264-.128-.594-.192-.991-.192-.541,0-.993.121-1.355.364-.362.239-.543.548-.543.927c0,.328.121.592.364.793.243.2.635.364,1.176.492l1.56.358c.903.209,1.577.53,2.02.965s.665.999.665,1.694c0,.588-.171,1.112-.512,1.572-.336.456-.807.814-1.412,1.074-.601.26-1.298.39-2.091.39-1.099,0-1.996-.234-2.691-.703-.694-.473-1.12-1.144-1.278-2.013l1.847-.282c.115.482.352.846.71,1.093.358.243.824.365,1.4.365.626,0,1.127-.13,1.502-.39.375-.264.562-.586.562-.965c0-.307-.115-.565-.345-.774-.226-.209-.573-.366-1.042-.473l-1.662-.364c-.916-.209-1.593-.541-2.032-.997-.435-.456-.652-1.034-.652-1.733c0-.579.162-1.086.485-1.521.324-.435.772-.773,1.343-1.016.571-.247,1.225-.371,1.962-.371c1.061,0,1.896.23,2.506.69.609.456,1.012,1.068,1.208,1.835Z" fill="#757575"/><path d="M204.222,190.571v-1.886l5.555-8.776h1.572v2.685h-.958l-3.74,5.925v.102h7.754v1.95h-10.183ZM210.467,193v-3.004l.026-.844v-9.243h2.237v13.091h-2.263Zm10.414.179c-.626-.004-1.238-.113-1.834-.326-.597-.217-1.134-.569-1.611-1.055-.477-.49-.857-1.14-1.138-1.949-.281-.814-.42-1.822-.415-3.024c0-1.12.119-2.12.358-2.998.238-.877.581-1.619,1.029-2.224.447-.609.986-1.074,1.617-1.393.635-.32,1.344-.48,2.128-.48.823,0,1.552.162,2.186.486.64.324,1.155.767,1.547,1.329.392.559.635,1.189.729,1.893h-2.333c-.119-.503-.364-.904-.735-1.202-.367-.303-.831-.454-1.394-.454-.907,0-1.606.394-2.096,1.182-.486.789-.731,1.871-.735,3.248h.089c.209-.375.48-.697.812-.966.332-.268.707-.475,1.125-.62.422-.149.867-.223,1.336-.223.767,0,1.455.183,2.065.549.613.367,1.099.872,1.457,1.515.358.64.535,1.372.531,2.199.004.861-.192,1.634-.589,2.321-.396.681-.948,1.218-1.655,1.61s-1.532.586-2.474.582Zm-.013-1.918c.465,0,.88-.113,1.247-.338.366-.226.656-.531.869-.914.213-.384.318-.814.313-1.292.005-.468-.098-.892-.306-1.272-.205-.379-.488-.679-.851-.901-.362-.222-.775-.332-1.24-.332-.345,0-.667.066-.965.198s-.558.315-.78.55c-.221.23-.396.498-.524.805-.123.302-.187.626-.192.972.005.455.111.875.32,1.259.209.383.496.69.863.92.366.23.782.345,1.246.345Zm7.42,1.88c-.388,0-.721-.137-.998-.409-.277-.273-.413-.606-.409-.998-.004-.383.132-.711.409-.984s.61-.409.998-.409c.375,0,.701.136.977.409.282.273.424.601.429.984-.005.26-.073.497-.205.71-.128.213-.298.383-.511.511-.209.124-.439.186-.69.186Zm7.117-13.232v13.091h-2.372v-10.783h-.077l-3.061,1.956v-2.174l3.253-2.09h2.257Zm7.758,13.27c-.627-.004-1.238-.113-1.835-.326-.597-.217-1.134-.569-1.611-1.055-.477-.49-.856-1.14-1.138-1.949-.281-.814-.419-1.822-.415-3.024c0-1.12.119-2.12.358-2.998.239-.877.582-1.619,1.029-2.224.447-.609.987-1.074,1.617-1.393.635-.32,1.345-.48,2.129-.48.822,0,1.551.162,2.186.486.639.324,1.155.767,1.547,1.329.392.559.635,1.189.728,1.893h-2.333c-.119-.503-.364-.904-.735-1.202-.366-.303-.831-.454-1.393-.454-.908,0-1.607.394-2.097,1.182-.486.789-.731,1.871-.735,3.248h.09c.208-.375.479-.697.811-.966.333-.268.708-.475,1.125-.62.422-.149.868-.223,1.336-.223.767,0,1.456.183,2.065.549.614.367,1.099.872,1.457,1.515.358.64.535,1.372.531,2.199.004.861-.192,1.634-.588,2.321-.397.681-.948,1.218-1.656,1.61-.707.392-1.532.586-2.473.582Zm-.013-1.918c.464,0,.88-.113,1.246-.338.367-.226.656-.531.869-.914.214-.384.318-.814.314-1.292.004-.468-.098-.892-.307-1.272-.205-.379-.488-.679-.85-.901s-.776-.332-1.24-.332c-.345,0-.667.066-.966.198-.298.132-.558.315-.779.55-.222.23-.397.498-.524.805-.124.302-.188.626-.192.972.004.455.111.875.319,1.259.209.383.497.69.863.92.367.23.782.345,1.247.345Zm13.53-.716v-.69c0-.507.106-.974.319-1.4.218-.426.533-.769.946-1.029.414-.26.914-.39,1.502-.39.606,0,1.113.13,1.522.39.409.256.718.597.927,1.023.213.426.319.895.319,1.406v.69c0,.508-.106.974-.319,1.4-.214.426-.527.769-.94,1.029-.409.26-.912.39-1.509.39-.596,0-1.101-.13-1.515-.39-.413-.26-.726-.603-.939-1.029-.209-.426-.313-.892-.313-1.4Zm1.668-.69v.69c0,.337.081.646.243.927.162.282.447.422.856.422.414,0,.697-.138.851-.415.157-.282.236-.593.236-.934v-.69c0-.341-.075-.652-.224-.933-.149-.286-.436-.428-.863-.428-.4,0-.684.142-.85.428-.166.281-.249.592-.249.933Zm-8.322-6.801v-.69c0-.512.108-.98.326-1.407.217-.426.532-.767.946-1.022.413-.26.914-.39,1.502-.39.601,0,1.105.13,1.515.39.413.255.724.596.933,1.022.209.427.313.895.313,1.407v.69c0,.511-.107.98-.32,1.406-.208.422-.519.761-.933,1.017-.413.255-.916.383-1.508.383-.601,0-1.108-.128-1.522-.383-.409-.256-.72-.597-.933-1.023s-.319-.893-.319-1.4Zm1.681-.69v.69c0,.341.078.652.236.933.162.277.448.416.857.416s.69-.139.843-.416c.158-.281.237-.592.237-.933v-.69c0-.341-.075-.652-.224-.934-.149-.285-.434-.428-.856-.428-.405,0-.689.143-.85.428-.162.286-.243.597-.243.934ZM250.754,193l9-13.091h1.598l-9,13.091h-1.598Z" fill="#fff"/></g></g><path d="M1041.08,806.621c5.78,2.455,12.46-.231,14.77-6.066c17.47-44.115,27.92-90.693,30.97-138.041.4-6.262-4.49-11.548-10.76-11.795v0c-6.27-.247-11.54,4.638-11.95,10.899-2.94,44.596-12.78,88.467-29.18,130.044-2.3,5.838.38,12.504,6.15,14.959v0Z" fill="url(#eVlCmdxMEUy13-fill)" fill-opacity="0.12"/><g transform="translate(50.516465 34.092537)"><path d="M1133.58,742h-2.1l4.72-13.091h2.28L1143.19,742h-2.1l-3.7-10.713h-.1L1133.58,742Zm.35-5.126h6.8v1.662h-6.8v-1.662Zm14.15,5.318c-.79,0-1.5-.203-2.12-.607-.62-.41-1.1-.991-1.46-1.745-.35-.759-.52-1.669-.52-2.73s.18-1.969.53-2.723c.36-.754.85-1.332,1.47-1.732.62-.401,1.33-.601,2.12-.601.61,0,1.1.102,1.47.307.37.2.66.434.87.703.2.268.37.505.48.709h.12v-4.864h1.91v13.091h-1.87v-1.528h-.16c-.11.209-.28.448-.5.716-.21.269-.5.503-.88.703-.37.201-.86.301-1.46.301Zm.42-1.63c.55,0,1.02-.145,1.4-.435.38-.294.67-.701.87-1.221s.3-1.125.3-1.815c0-.682-.1-1.278-.3-1.79-.19-.511-.48-.91-.86-1.195-.38-.286-.85-.428-1.41-.428-.57,0-1.05.149-1.43.447-.39.298-.68.705-.87,1.221s-.29,1.097-.29,1.745c0,.656.1,1.246.29,1.771.2.524.49.939.87,1.246.39.303.87.454,1.43.454Zm15.21-8.38L1160.15,742h-2.04l-3.57-9.818h2.05l2.49,7.555h.1l2.48-7.555h2.05Zm1.44,9.818v-9.818h1.91v9.818h-1.91Zm.97-11.333c-.34,0-.62-.111-.86-.332-.24-.226-.35-.495-.35-.806c0-.315.11-.584.35-.805.24-.226.52-.339.86-.339.33,0,.61.113.85.339.23.221.35.49.35.805c0,.311-.12.58-.35.806-.24.221-.52.332-.85.332Zm10.51,3.912l-1.73.307c-.07-.222-.19-.433-.35-.633-.15-.2-.36-.364-.62-.492-.27-.128-.6-.192-.99-.192-.55,0-1,.121-1.36.364-.36.239-.54.548-.54.927c0,.328.12.592.36.793.24.2.64.364,1.18.492l1.56.358c.9.209,1.57.53,2.02.965.44.435.66.999.66,1.694c0,.588-.17,1.112-.51,1.572-.34.456-.81.814-1.41,1.074s-1.3.39-2.09.39c-1.1,0-2-.234-2.69-.703-.7-.473-1.12-1.144-1.28-2.013l1.85-.282c.11.482.35.846.7,1.093.36.243.83.365,1.4.365.63,0,1.13-.13,1.51-.39.37-.264.56-.586.56-.965c0-.307-.12-.565-.35-.774-.22-.209-.57-.366-1.04-.473l-1.66-.364c-.92-.209-1.59-.541-2.03-.997s-.65-1.034-.65-1.733c0-.579.16-1.086.48-1.521.33-.435.77-.773,1.34-1.016.57-.247,1.23-.371,1.97-.371c1.06,0,1.89.23,2.5.69.61.456,1.01,1.068,1.21,1.835Zm6.07,7.619c-.92,0-1.72-.211-2.41-.633s-1.22-1.012-1.6-1.77c-.38-.759-.57-1.645-.57-2.659c0-1.019.19-1.909.57-2.672s.91-1.355,1.6-1.777s1.49-.633,2.41-.633s1.72.211,2.41.633c.68.422,1.22,1.014,1.6,1.777s.57,1.653.57,2.672c0,1.014-.19,1.9-.57,2.659-.38.758-.92,1.348-1.6,1.77-.69.422-1.49.633-2.41.633Zm.01-1.604c.59,0,1.09-.158,1.48-.473.39-.316.68-.735.87-1.259.19-.525.29-1.102.29-1.733c0-.626-.1-1.201-.29-1.726-.19-.528-.48-.952-.87-1.272-.39-.319-.89-.479-1.48-.479-.61,0-1.1.16-1.5.479-.39.32-.68.744-.88,1.272-.18.525-.28,1.1-.28,1.726c0,.631.1,1.208.28,1.733.2.524.49.943.88,1.259.4.315.89.473,1.5.473Zm6.34,1.406v-9.818h1.85v1.56h.1c.18-.529.49-.944.94-1.247.46-.307.98-.46,1.55-.46.12,0,.26.004.42.013.17.008.3.019.39.032v1.828c-.07-.022-.21-.045-.41-.071-.19-.029-.39-.044-.58-.044-.46,0-.86.096-1.21.287-.35.188-.63.45-.83.787-.21.332-.31.711-.31,1.137v5.996h-1.91Zm13.9-7.421l-1.73.307c-.07-.222-.19-.433-.34-.633-.16-.2-.37-.364-.63-.492s-.59-.192-.99-.192c-.54,0-.99.121-1.36.364-.36.239-.54.548-.54.927c0,.328.12.592.37.793.24.2.63.364,1.17.492l1.56.358c.9.209,1.58.53,2.02.965s.67.999.67,1.694c0,.588-.17,1.112-.52,1.572-.33.456-.8.814-1.41,1.074-.6.26-1.3.39-2.09.39-1.1,0-1.99-.234-2.69-.703-.69-.473-1.12-1.144-1.28-2.013l1.85-.282c.11.482.35.846.71,1.093.36.243.82.365,1.4.365.63,0,1.13-.13,1.5-.39.38-.264.56-.586.56-.965c0-.307-.11-.565-.34-.774s-.57-.366-1.04-.473l-1.67-.364c-.91-.209-1.59-.541-2.03-.997-.43-.456-.65-1.034-.65-1.733c0-.579.16-1.086.49-1.521.32-.435.77-.773,1.34-1.016.57-.247,1.22-.371,1.96-.371c1.06,0,1.9.23,2.51.69.61.456,1.01,1.068,1.2,1.835Z" fill="#757575"/><path d="M1147.73,708.179c-.86,0-1.62-.16-2.29-.479-.68-.324-1.21-.767-1.61-1.33-.39-.562-.6-1.206-.62-1.93h2.3c.04.537.27.976.69,1.316.43.337.93.505,1.53.505.46,0,.87-.106,1.24-.319.36-.213.64-.509.85-.889.21-.379.31-.811.31-1.297c0-.495-.1-.934-.31-1.317-.22-.384-.51-.684-.88-.901-.37-.222-.8-.333-1.28-.333-.39-.004-.78.068-1.16.218-.37.149-.68.345-.9.588l-2.14-.352.69-6.75h7.59v1.982h-5.63l-.38,3.471h.08c.24-.286.58-.522,1.03-.71.44-.192.93-.288,1.45-.288.8,0,1.5.188,2.13.563.62.371,1.11.882,1.47,1.534.35.652.53,1.398.53,2.237c0,.865-.2,1.637-.6,2.314-.39.673-.95,1.204-1.65,1.592-.71.383-1.52.575-2.44.575Zm7.49-.038c-.39,0-.72-.137-1-.409-.28-.273-.41-.606-.41-.998c0-.383.13-.711.41-.984s.61-.409,1-.409c.37,0,.7.136.97.409.29.273.43.601.43.984c0,.26-.07.497-.2.71s-.3.383-.51.511c-.21.124-.44.186-.69.186Zm3.46-.141l5.57-11.02v-.089h-6.46v-1.982h8.92v2.026L1161.14,708h-2.46Zm10.56,0l5.57-11.02v-.089h-6.47v-1.982h8.92v2.026L1171.7,708h-2.46Zm16.72-2.455v-.69c0-.507.11-.974.32-1.4.22-.426.54-.769.95-1.029s.91-.39,1.5-.39c.61,0,1.11.13,1.52.39.41.256.72.597.93,1.023s.32.895.32,1.406v.69c0,.508-.11.974-.32,1.4s-.53.77-.94,1.029c-.41.26-.91.39-1.51.39-.59,0-1.1-.13-1.51-.39-.42-.259-.73-.603-.94-1.029s-.32-.892-.32-1.4Zm1.67-.69v.69c0,.337.08.646.25.927.16.282.44.422.85.422.42,0,.7-.138.85-.415.16-.282.24-.593.24-.934v-.69c0-.341-.08-.652-.23-.933-.14-.286-.43-.428-.86-.428-.4,0-.68.142-.85.428-.16.281-.25.592-.25.933Zm-8.32-6.801v-.69c0-.512.11-.98.33-1.407.21-.426.53-.767.94-1.022.42-.26.92-.39,1.5-.39.61,0,1.11.13,1.52.39.41.255.72.596.93,1.022.21.427.32.895.32,1.407v.69c0,.511-.11.98-.32,1.406-.21.422-.52.761-.94,1.017-.41.255-.91.383-1.51.383s-1.1-.128-1.52-.383c-.41-.256-.72-.597-.93-1.023s-.32-.893-.32-1.4Zm1.68-.69v.69c0,.341.08.652.24.933.16.277.45.416.85.416.41,0,.69-.139.85-.416.16-.281.23-.592.23-.933v-.69c0-.341-.07-.652-.22-.934-.15-.285-.43-.428-.86-.428-.4,0-.68.143-.85.428-.16.286-.24.597-.24.934ZM1180.04,708l9-13.091h1.6l-9,13.091h-1.6Z" fill="#fff"/></g><path d="M702.742,1070.92c.984,6.2,6.81,10.44,12.981,9.3c68.511-12.64,133.254-40.87,189.19-82.571c55.935-41.7,101.477-95.686,133.157-157.736c2.85-5.59.45-12.384-5.21-15.096v0c-5.66-2.713-12.43-.317-15.29,5.269-30.083,58.735-73.253,109.842-126.24,149.344-52.987,39.5-114.293,66.28-179.172,78.34-6.169,1.15-10.4,6.95-9.416,13.15v0Z" fill="url(#eVlCmdxMEUy17-fill)" fill-opacity="0.12"/><g transform="translate(62.261169 47.865112)"><path d="M919.723,1080v-13.09h1.975v11.39h5.932v1.7h-7.907Zm13.782.2c-.92,0-1.723-.21-2.409-.63-.686-.43-1.219-1.02-1.598-1.78-.38-.75-.569-1.64-.569-2.65c0-1.02.189-1.91.569-2.68.379-.76.912-1.35,1.598-1.77.686-.43,1.489-.64,2.409-.64.921,0,1.724.21,2.41.64.686.42,1.219,1.01,1.598,1.77.38.77.569,1.66.569,2.68c0,1.01-.189,1.9-.569,2.65-.379.76-.912,1.35-1.598,1.78-.686.42-1.489.63-2.41.63Zm.007-1.61c.596,0,1.091-.15,1.483-.47.392-.31.682-.73.869-1.26.192-.52.288-1.1.288-1.73s-.096-1.2-.288-1.73c-.187-.53-.477-.95-.869-1.27s-.887-.48-1.483-.48c-.601,0-1.1.16-1.496.48-.392.32-.684.74-.876,1.27-.187.53-.281,1.1-.281,1.73s.094,1.21.281,1.73c.192.53.484.95.876,1.26.396.32.895.47,1.496.47Zm10.479,1.61c-.92,0-1.724-.21-2.41-.63-.686-.43-1.218-1.02-1.598-1.78-.379-.75-.569-1.64-.569-2.65c0-1.02.19-1.91.569-2.68.38-.76.912-1.35,1.598-1.77.686-.43,1.49-.64,2.41-.64.921,0,1.724.21,2.41.64.686.42,1.219,1.01,1.598,1.77.379.77.569,1.66.569,2.68c0,1.01-.19,1.9-.569,2.65-.379.76-.912,1.35-1.598,1.78-.686.42-1.489.63-2.41.63Zm.007-1.61c.596,0,1.09-.15,1.483-.47.392-.31.681-.73.869-1.26.192-.52.288-1.1.288-1.73s-.096-1.2-.288-1.73c-.188-.53-.477-.95-.869-1.27-.393-.32-.887-.48-1.483-.48-.601,0-1.1.16-1.496.48-.392.32-.684.74-.876,1.27-.187.53-.281,1.1-.281,1.73s.094,1.21.281,1.73c.192.53.484.95.876,1.26.396.32.895.47,1.496.47Zm6.343,5.09v-13.5h1.867v1.59h.16c.11-.2.27-.44.479-.71.209-.26.499-.5.869-.7.371-.2.861-.31,1.47-.31.793,0,1.5.2,2.123.6.622.41,1.11.98,1.463,1.74.358.75.537,1.66.537,2.72s-.177,1.97-.53,2.73c-.354.75-.84,1.34-1.458,1.74-.618.41-1.323.61-2.115.61-.597,0-1.085-.1-1.464-.3-.375-.2-.669-.43-.882-.7s-.377-.51-.492-.72h-.116v5.21h-1.911Zm1.873-8.59c0,.69.1,1.3.301,1.82.2.52.49.92.869,1.22.379.29.844.43,1.393.43.571,0,1.049-.15,1.432-.45.384-.31.673-.72.869-1.25.201-.52.301-1.11.301-1.77c0-.65-.098-1.23-.294-1.74-.192-.52-.482-.93-.869-1.23-.384-.29-.863-.44-1.439-.44-.554,0-1.022.14-1.406.43-.379.28-.667.68-.863,1.19s-.294,1.11-.294,1.79Zm24-8.18v13.09h-1.816l-6.654-9.6h-.121v9.6h-1.975v-13.09h1.828l6.66,9.61h.122v-9.61h1.956Zm6.599,13.29c-.967,0-1.8-.21-2.499-.62-.695-.42-1.232-1.01-1.611-1.76-.375-.76-.562-1.65-.562-2.67c0-1,.187-1.89.562-2.65.379-.77.908-1.37,1.585-1.8.682-.43,1.479-.65,2.391-.65.554,0,1.091.1,1.611.28s.986.47,1.4.86c.413.39.739.9.977,1.53.239.62.358,1.38.358,2.27v.68h-7.804v-1.44h5.932c0-.5-.103-.94-.307-1.33-.205-.39-.492-.7-.863-.93-.367-.22-.797-.34-1.291-.34-.537,0-1.006.13-1.407.4-.396.26-.703.6-.92,1.02-.213.42-.32.87-.32,1.36v1.12c0,.66.115,1.22.346,1.68.234.46.56.81.977,1.05.418.24.906.36,1.464.36.362,0,.693-.05.991-.15.298-.11.556-.27.773-.48.218-.21.384-.46.499-.77l1.809.33c-.145.53-.405.99-.78,1.4-.371.39-.837.7-1.4.92-.558.22-1.195.33-1.911.33Zm10.556-10.02v1.54h-5.363v-1.54h5.363Zm-3.925-2.35h1.912v9.29c0,.37.055.65.166.83.111.19.253.31.428.38.179.07.373.1.582.1.153,0,.287-.01.402-.03.116-.03.205-.04.269-.06l.345,1.58c-.111.05-.268.09-.473.13-.204.05-.46.07-.767.08-.503.01-.972-.08-1.406-.27-.435-.19-.786-.48-1.055-.87-.268-.39-.403-.88-.403-1.48v-9.68Zm7.808,12.17l-2.889-9.82h1.975l1.924,7.21h.096l1.932-7.21h1.97l1.92,7.18h.1l1.91-7.18h1.97l-2.88,9.82h-1.95l-1.99-7.09h-.15l-1.995,7.09h-1.943Zm16.198.2c-.92,0-1.72-.21-2.41-.63-.68-.43-1.21-1.02-1.59-1.78-.38-.75-.57-1.64-.57-2.65c0-1.02.19-1.91.57-2.68.38-.76.91-1.35,1.59-1.77.69-.43,1.49-.64,2.41-.64s1.73.21,2.41.64c.69.42,1.22,1.01,1.6,1.77.38.77.57,1.66.57,2.68c0,1.01-.19,1.9-.57,2.65-.38.76-.91,1.35-1.6,1.78-.68.42-1.49.63-2.41.63Zm.01-1.61c.6,0,1.09-.15,1.48-.47.4-.31.68-.73.87-1.26.19-.52.29-1.1.29-1.73s-.1-1.2-.29-1.73-.47-.95-.87-1.27c-.39-.32-.88-.48-1.48-.48s-1.1.16-1.5.48c-.39.32-.68.74-.87,1.27s-.28,1.1-.28,1.73.09,1.21.28,1.73c.19.53.48.95.87,1.26.4.32.9.47,1.5.47Zm6.34,1.41v-9.82h1.85v1.56h.1c.18-.53.5-.94.95-1.24.46-.31.97-.47,1.55-.47.12,0,.26.01.42.02s.29.02.39.03v1.83c-.08-.02-.22-.05-.41-.07-.2-.03-.39-.05-.59-.05-.45,0-.85.1-1.21.29-.35.19-.62.45-.83.79-.2.33-.31.71-.31,1.13v6h-1.91Zm8.31-3.33l-.01-2.33h.33l3.91-4.16h2.29l-4.46,4.73h-.3l-1.76,1.76Zm-1.76,3.33v-13.09h1.91v13.09h-1.91Zm6.2,0l-3.51-4.67l1.31-1.33l4.55,6h-2.35Zm8.02,0v-13.09h8.21v1.7h-6.24v3.99h5.81v1.69h-5.81v4.01h6.31v1.7h-8.28Zm14.47.2c-.95,0-1.77-.22-2.46-.65-.68-.43-1.2-1.03-1.57-1.79-.37-.77-.55-1.64-.55-2.62c0-1,.19-1.88.56-2.64.38-.77.91-1.37,1.59-1.8s1.48-.65,2.41-.65c.74,0,1.41.14,1.99.42.59.27,1.06.66,1.41,1.15.37.49.58,1.07.65,1.73h-1.86c-.1-.46-.34-.85-.7-1.19-.37-.33-.85-.5-1.46-.5-.53,0-1,.15-1.4.43-.4.27-.71.67-.93,1.19-.22.51-.33,1.11-.33,1.81c0,.72.11,1.33.33,1.85.21.52.52.93.92,1.21.4.29.87.43,1.41.43.36,0,.69-.07.98-.2.3-.13.55-.33.75-.58.21-.25.35-.55.43-.91h1.86c-.07.64-.28,1.21-.62,1.7-.35.5-.81.89-1.39,1.18-.57.29-1.25.43-2.02.43Zm9.85,0c-.92,0-1.72-.21-2.41-.63-.69-.43-1.22-1.02-1.6-1.78-.38-.75-.57-1.64-.57-2.65c0-1.02.19-1.91.57-2.68.38-.76.91-1.35,1.6-1.77.69-.43,1.49-.64,2.41-.64s1.72.21,2.41.64c.69.42,1.22,1.01,1.6,1.77.38.77.57,1.66.57,2.68c0,1.01-.19,1.9-.57,2.65-.38.76-.91,1.35-1.6,1.78-.69.42-1.49.63-2.41.63Zm.01-1.61c.59,0,1.09-.15,1.48-.47.39-.31.68-.73.87-1.26.19-.52.29-1.1.29-1.73s-.1-1.2-.29-1.73-.48-.95-.87-1.27-.89-.48-1.48-.48c-.61,0-1.1.16-1.5.48-.39.32-.68.74-.88,1.27-.18.53-.28,1.1-.28,1.73s.1,1.21.28,1.73c.2.53.49.95.88,1.26.4.32.89.47,1.5.47Zm13.7-6.01l-1.74.31c-.07-.23-.18-.44-.34-.64-.15-.2-.36-.36-.63-.49-.26-.13-.59-.19-.99-.19-.54,0-.99.12-1.35.36-.37.24-.55.55-.55.93c0,.33.13.59.37.79s.63.37,1.17.49l1.56.36c.91.21,1.58.53,2.02.97.45.43.67,1,.67,1.69c0,.59-.17,1.11-.51,1.57s-.81.82-1.42,1.08c-.6.26-1.29.39-2.09.39-1.1,0-1.99-.24-2.69-.7-.69-.48-1.12-1.15-1.28-2.02l1.85-.28c.12.48.35.85.71,1.09.36.25.83.37,1.4.37.63,0,1.13-.13,1.5-.39.38-.27.57-.59.57-.97c0-.3-.12-.56-.35-.77-.22-.21-.57-.37-1.04-.47l-1.66-.37c-.92-.21-1.6-.54-2.04-1-.43-.45-.65-1.03-.65-1.73c0-.58.16-1.08.49-1.52.32-.43.77-.77,1.34-1.02.57-.24,1.23-.37,1.96-.37c1.06,0,1.9.23,2.51.69s1.01,1.07,1.21,1.84Zm3.14,11.1c-.29,0-.55-.02-.78-.07-.24-.04-.41-.09-.53-.14l.46-1.57c.35.1.66.14.94.13.27-.02.51-.12.72-.31s.4-.51.56-.94l.24-.65-3.59-9.95h2.04l2.49,7.62h.1l2.49-7.62h2.05l-4.05,11.13c-.18.51-.42.94-.71,1.3s-.64.62-1.04.8-.86.27-1.39.27Zm15.98-11.1l-1.73.31c-.07-.23-.19-.44-.35-.64-.15-.2-.36-.36-.62-.49-.27-.13-.6-.19-.99-.19-.54,0-1,.12-1.36.36s-.54.55-.54.93c0,.33.12.59.36.79.25.2.64.37,1.18.49l1.56.36c.9.21,1.58.53,2.02.97.44.43.66,1,.66,1.69c0,.59-.17,1.11-.51,1.57-.33.46-.8.82-1.41,1.08-.6.26-1.3.39-2.09.39-1.1,0-2-.24-2.69-.7-.7-.48-1.12-1.15-1.28-2.02l1.85-.28c.11.48.35.85.71,1.09.36.25.82.37,1.4.37.62,0,1.12-.13,1.5-.39.37-.27.56-.59.56-.97c0-.3-.11-.56-.34-.77s-.58-.37-1.05-.47l-1.66-.37c-.91-.21-1.59-.54-2.03-1-.43-.45-.65-1.03-.65-1.73c0-.58.16-1.08.48-1.52.33-.43.78-.77,1.35-1.02.57-.24,1.22-.37,1.96-.37c1.06,0,1.89.23,2.5.69s1.02,1.07,1.21,1.84Zm6.52-2.4v1.54h-5.36v-1.54h5.36Zm-3.93-2.35h1.92v9.29c0,.37.05.65.16.83.11.19.25.31.43.38s.37.1.58.1c.15,0,.29-.01.4-.03.12-.03.21-.04.27-.06l.35,1.58c-.11.05-.27.09-.48.13-.2.05-.46.07-.76.08-.51.01-.97-.08-1.41-.27-.43-.19-.78-.48-1.05-.87s-.41-.88-.41-1.48v-9.68Zm9.81,12.37c-.97,0-1.8-.21-2.5-.62-.7-.42-1.23-1.01-1.61-1.76-.38-.76-.56-1.65-.56-2.67c0-1,.18-1.89.56-2.65.38-.77.91-1.37,1.58-1.8.69-.43,1.48-.65,2.39-.65.56,0,1.1.1,1.62.28s.98.47,1.4.86c.41.39.73.9.97,1.53.24.62.36,1.38.36,2.27v.68h-7.8v-1.44h5.93c0-.5-.1-.94-.31-1.33-.2-.39-.49-.7-.86-.93-.37-.22-.8-.34-1.29-.34-.54,0-1.01.13-1.41.4-.4.26-.7.6-.92,1.02-.21.42-.32.87-.32,1.36v1.12c0,.66.12,1.22.35,1.68s.56.81.97,1.05c.42.24.91.36,1.47.36.36,0,.69-.05.99-.15.3-.11.55-.27.77-.48s.39-.46.5-.77l1.81.33c-.15.53-.41.99-.78,1.4-.37.39-.84.7-1.4.92s-1.2.33-1.91.33Zm5.97-.2v-9.82h1.84v1.6h.12c.2-.54.54-.96,1-1.27.47-.3,1.02-.46,1.67-.46.66,0,1.21.16,1.65.46.45.31.78.73.99,1.27h.1c.24-.52.61-.94,1.12-1.25.51-.32,1.12-.48,1.83-.48.89,0,1.62.28,2.18.84s.85,1.4.85,2.53v6.58h-1.91v-6.4c0-.67-.18-1.15-.55-1.45-.36-.3-.79-.45-1.29-.45-.63,0-1.11.19-1.45.58-.35.38-.52.87-.52,1.46v6.26h-1.91v-6.53c0-.53-.16-.96-.5-1.28-.33-.32-.76-.49-1.29-.49-.37,0-.7.1-1.01.29-.3.19-.54.45-.73.79-.19.33-.28.72-.28,1.17v6.05h-1.91Z" fill="#757575"/><path d="M999.932,1032.91v13.09h-2.372v-10.78h-.076l-3.062,1.95v-2.17l3.253-2.09h2.257Zm7.518,13.27c-.86,0-1.62-.16-2.29-.48s-1.21-.77-1.61-1.33c-.39-.56-.6-1.21-.62-1.93h2.3c.04.54.27.98.7,1.32.42.33.92.5,1.52.5.46,0,.87-.11,1.24-.32.36-.21.64-.51.85-.89s.31-.81.31-1.29c0-.5-.1-.94-.31-1.32-.22-.38-.51-.69-.88-.9-.37-.22-.8-.33-1.28-.33-.39-.01-.77.06-1.15.21s-.68.35-.91.59l-2.14-.35.69-6.75h7.59v1.98h-5.63l-.38,3.47h.08c.24-.28.59-.52,1.03-.71s.93-.29,1.46-.29c.79,0,1.5.19,2.12.57.62.37,1.11.88,1.47,1.53s.54,1.4.54,2.24c0,.86-.21,1.63-.61,2.31-.39.68-.94,1.21-1.65,1.59-.7.39-1.52.58-2.44.58Zm7.49-.04c-.39,0-.72-.14-1-.41s-.41-.6-.41-1c0-.38.13-.71.41-.98s.61-.41,1-.41c.37,0,.7.14.98.41s.42.6.42.98c0,.26-.07.5-.2.71-.13.22-.3.39-.51.52-.21.12-.44.18-.69.18Zm7.67.04c-.92,0-1.74-.16-2.46-.47-.71-.32-1.27-.76-1.69-1.32-.41-.56-.63-1.21-.65-1.95h2.4c.02.35.14.66.35.93.21.26.5.46.85.6.35.15.75.22,1.19.22.47,0,.88-.08,1.25-.24.36-.17.64-.4.85-.69.2-.3.3-.64.3-1.02c0-.39-.1-.74-.31-1.05-.21-.3-.51-.54-.91-.71-.39-.17-.86-.25-1.42-.25h-1.15v-1.83h1.15c.46,0,.86-.08,1.2-.24.34-.15.61-.38.81-.66.2-.29.29-.63.29-1c0-.38-.08-.7-.25-.97-.17-.28-.4-.49-.71-.65-.3-.15-.66-.23-1.07-.23-.4,0-.77.08-1.11.22-.34.15-.62.35-.82.62-.21.27-.32.58-.34.95h-2.28c.02-.74.23-1.38.63-1.93.41-.56.96-1,1.64-1.31s1.45-.47,2.29-.47c.88,0,1.64.16,2.28.49.65.33,1.15.76,1.5,1.31.36.55.53,1.16.53,1.82.01.74-.21,1.36-.65,1.86-.43.5-1,.82-1.71.98v.1c.92.13,1.62.47,2.11,1.02.5.55.74,1.23.74,2.05c0,.74-.21,1.39-.63,1.97-.41.58-.98,1.03-1.71,1.36-.73.32-1.56.49-2.49.49Zm11.32,0c-.95,0-1.8-.16-2.54-.48-.73-.32-1.3-.76-1.72-1.31-.41-.56-.62-1.19-.61-1.9-.01-.55.11-1.05.35-1.51.25-.46.57-.85.99-1.15.42-.32.88-.51,1.39-.6v-.09c-.67-.15-1.22-.49-1.64-1.03-.41-.54-.61-1.16-.61-1.87c0-.67.18-1.27.56-1.8s.9-.95,1.56-1.25c.66-.31,1.42-.46,2.27-.46.84,0,1.58.15,2.24.46.66.3,1.18.72,1.56,1.25s.57,1.13.57,1.8c0,.71-.21,1.33-.63,1.87s-.95.88-1.62,1.03v.09c.52.09.98.28,1.39.6.41.3.74.69.98,1.15.25.46.37.96.37,1.51c0,.71-.21,1.34-.63,1.9-.41.55-.99.99-1.72,1.31s-1.57.48-2.51.48Zm0-1.83c.49,0,.91-.08,1.27-.25.37-.17.65-.41.85-.71.2-.31.3-.66.31-1.07-.01-.41-.12-.78-.33-1.1-.21-.33-.5-.58-.86-.76-.37-.19-.78-.28-1.24-.28-.47,0-.89.09-1.26.28-.36.18-.65.43-.87.76-.2.32-.31.69-.3,1.1-.01.41.09.76.29,1.07.2.3.48.53.84.71.37.17.8.25,1.3.25Zm0-5.96c.4,0,.75-.08,1.06-.25.31-.16.55-.38.73-.67s.27-.63.28-1.01c-.01-.37-.1-.7-.27-.98-.18-.29-.42-.51-.73-.66-.31-.16-.67-.24-1.07-.24-.42,0-.78.08-1.1.24-.31.15-.55.37-.73.66-.17.28-.25.61-.24.98-.01.38.08.72.25,1.01.18.28.42.51.74.67.31.17.67.25,1.08.25Zm13.6,5.16v-.69c0-.51.11-.98.32-1.4.22-.43.53-.77.95-1.03.41-.26.91-.39,1.5-.39.6,0,1.11.13,1.52.39.41.25.72.59.93,1.02s.32.89.32,1.41v.69c0,.5-.11.97-.32,1.4-.22.42-.53.76-.94,1.02s-.91.39-1.51.39-1.1-.13-1.52-.39c-.41-.26-.72-.6-.94-1.02-.2-.43-.31-.9-.31-1.4Zm1.67-.69v.69c0,.33.08.64.24.92s.45.42.86.42.7-.13.85-.41c.16-.28.24-.59.24-.93v-.69c0-.35-.08-.66-.23-.94s-.43-.43-.86-.43c-.4,0-.68.15-.85.43s-.25.59-.25.94Zm-8.32-6.81v-.69c0-.51.11-.98.32-1.4.22-.43.54-.77.95-1.03s.91-.39,1.5-.39c.6,0,1.11.13,1.52.39s.72.6.93,1.03c.21.42.31.89.31,1.4v.69c0,.52-.1.98-.32,1.41-.21.42-.52.76-.93,1.02-.41.25-.92.38-1.51.38-.6,0-1.11-.13-1.52-.38-.41-.26-.72-.6-.93-1.03-.22-.42-.32-.89-.32-1.4Zm1.68-.69v.69c0,.34.08.66.23.94.17.27.45.41.86.41s.69-.14.84-.41c.16-.28.24-.6.24-.94v-.69c0-.34-.07-.65-.22-.93-.15-.29-.44-.43-.86-.43-.4,0-.69.14-.85.43s-.24.6-.24.93Zm-.95,10.64l9-13.09h1.59l-9,13.09h-1.59Z" fill="#fff"/></g><path d="M378.212,995.644c-3.612,5.136-2.387,12.236,2.834,15.716c85.892,57.3,188.753,83.64,291.614,74.69c6.252-.54,10.74-6.18,10.04-12.42v0c-.7-6.23-6.323-10.7-12.576-10.17-97.34,8.34-194.65-16.58-275.994-70.69-5.225-3.476-12.306-2.258-15.918,2.874v0Z" fill="url(#eVlCmdxMEUy21-fill)" fill-opacity="0.12"/><g transform="translate(-15.610775 59.604783)"><path d="M411.571,1161v-13.09h8.208v1.7h-6.232v3.99h5.804v1.69h-5.804v4.01h6.309v1.7h-8.285Zm13.19.22c-.622,0-1.185-.12-1.687-.35-.503-.23-.902-.57-1.196-1.01-.29-.45-.434-.99-.434-1.63c0-.56.106-1.01.319-1.37s.501-.64.863-.85.767-.37,1.215-.48c.447-.1.903-.18,1.367-.24.589-.07,1.066-.12,1.432-.16.367-.05.633-.13.799-.23s.25-.27.25-.5v-.04c0-.56-.158-.99-.473-1.3-.312-.31-.776-.46-1.394-.46-.643,0-1.15.14-1.521.43-.367.28-.62.59-.761.94l-1.796-.41c.213-.6.524-1.08.933-1.44.414-.38.889-.64,1.426-.81s1.101-.26,1.694-.26c.392,0,.807.05,1.246.14.443.09.857.26,1.24.5.388.25.705.59.952,1.05.248.44.371,1.02.371,1.74v6.52h-1.866v-1.34h-.077c-.124.24-.309.49-.556.73-.247.23-.565.43-.953.59-.387.16-.852.24-1.393.24Zm.416-1.54c.528,0,.98-.1,1.355-.31.379-.21.667-.48.863-.82.2-.34.3-.7.3-1.09v-1.27c-.068.07-.2.14-.396.19-.192.06-.412.11-.659.15s-.488.08-.722.11-.43.06-.588.08c-.371.04-.71.12-1.016.23-.303.11-.546.27-.729.48-.179.21-.269.48-.269.82c0,.47.175.83.525,1.08.349.23.794.35,1.336.35Zm6.615,1.32v-9.82h1.847v1.56h.102c.179-.53.495-.94.946-1.24.456-.31.972-.47,1.547-.47.12,0,.26.01.422.02.166.01.296.02.39.03v1.83c-.077-.02-.213-.05-.409-.07-.196-.03-.392-.05-.588-.05-.452,0-.854.1-1.208.29-.35.19-.627.45-.831.79-.205.33-.307.71-.307,1.13v6h-1.911Zm8.459-13.09v13.09h-1.911v-13.09h1.911Zm3.42,16.77c-.286,0-.546-.02-.78-.07-.235-.04-.409-.09-.524-.14l.46-1.57c.349.1.66.14.933.13.273-.02.514-.12.722-.31.213-.19.401-.51.563-.94l.236-.65-3.592-9.95h2.045l2.487,7.62h.102l2.487-7.62h2.052l-4.047,11.13c-.187.51-.426.94-.715,1.3-.29.36-.635.62-1.036.8s-.865.27-1.393.27Zm15.159-16.77v13.09h-1.975v-13.09h1.975Zm4.274,7.26v5.83h-1.911v-9.82h1.835v1.6h.121c.226-.52.58-.94,1.061-1.25.486-.32,1.097-.48,1.835-.48.669,0,1.255.14,1.757.43.503.27.893.69,1.17,1.24s.416,1.23.416,2.03v6.25h-1.912v-6.01c0-.72-.185-1.27-.556-1.67-.37-.41-.88-.61-1.527-.61-.444,0-.838.1-1.183.29-.341.19-.611.47-.812.84-.196.37-.294.81-.294,1.33Zm16.534-3.99l-3.56,9.82h-2.045l-3.567-9.82h2.052l2.486,7.56h.102l2.481-7.56h2.051Zm5.334,10.02c-.967,0-1.8-.21-2.499-.62-.695-.42-1.232-1.01-1.611-1.76-.375-.76-.562-1.65-.562-2.67c0-1,.187-1.89.562-2.65.379-.77.908-1.37,1.585-1.8.682-.43,1.479-.65,2.391-.65.554,0,1.091.1,1.611.28s.986.47,1.4.86c.413.39.739.9.978,1.53.238.62.357,1.38.357,2.27v.68h-7.804v-1.44h5.932c0-.5-.103-.94-.307-1.33-.205-.39-.492-.7-.863-.93-.367-.22-.797-.34-1.291-.34-.537,0-1.006.13-1.407.4-.396.26-.703.6-.92,1.02-.213.42-.32.87-.32,1.36v1.12c0,.66.115,1.22.346,1.68.234.46.56.81.978,1.05.417.24.905.36,1.463.36.363,0,.693-.05.991-.15.298-.11.556-.27.773-.48.218-.21.384-.46.499-.77l1.809.33c-.145.53-.405.99-.78,1.4-.371.39-.837.7-1.4.92-.558.22-1.195.33-1.911.33Zm13.33-7.62l-1.732.31c-.072-.23-.187-.44-.345-.64-.154-.2-.362-.36-.627-.49-.264-.13-.594-.19-.99-.19-.542,0-.993.12-1.355.36-.363.24-.544.55-.544.93c0,.33.122.59.365.79.242.2.635.37,1.176.49l1.559.36c.904.21,1.577.53,2.02.97.443.43.665,1,.665,1.69c0,.59-.17,1.11-.511,1.57-.337.46-.808.82-1.413,1.08-.601.26-1.298.39-2.09.39-1.1,0-1.997-.24-2.691-.7-.695-.48-1.121-1.15-1.279-2.02l1.848-.28c.115.48.351.85.709,1.09.358.25.825.37,1.4.37.626,0,1.127-.13,1.502-.39.375-.27.563-.59.563-.97c0-.3-.115-.56-.345-.77-.226-.21-.574-.37-1.042-.47l-1.662-.37c-.917-.21-1.594-.54-2.033-1-.435-.45-.652-1.03-.652-1.73c0-.58.162-1.08.486-1.52.324-.43.771-.77,1.342-1.02.571-.24,1.225-.37,1.962-.37c1.062,0,1.897.23,2.506.69.61.46,1.012,1.07,1.208,1.84Zm6.517-2.4v1.54h-5.363v-1.54h5.363Zm-3.925-2.35h1.911v9.29c0,.37.055.65.166.83.111.19.254.31.428.38.179.07.373.1.582.1.154,0,.288-.01.403-.03.115-.03.204-.04.268-.06l.345,1.58c-.11.05-.268.09-.473.13-.204.05-.46.07-.767.08-.502.01-.971-.08-1.406-.27-.434-.19-.786-.48-1.054-.87-.269-.39-.403-.88-.403-1.48v-9.68Zm9.709,12.37c-.921,0-1.724-.21-2.41-.63-.686-.43-1.219-1.02-1.598-1.78-.379-.75-.569-1.64-.569-2.65c0-1.02.19-1.91.569-2.68.379-.76.912-1.35,1.598-1.77.686-.43,1.489-.64,2.41-.64.92,0,1.724.21,2.41.64.686.42,1.218,1.01,1.598,1.77.379.77.569,1.66.569,2.68c0,1.01-.19,1.9-.569,2.65-.38.76-.912,1.35-1.598,1.78-.686.42-1.49.63-2.41.63Zm.006-1.61c.597,0,1.091-.15,1.483-.47.392-.31.682-.73.87-1.26.191-.52.287-1.1.287-1.73s-.096-1.2-.287-1.73c-.188-.53-.478-.95-.87-1.27s-.886-.48-1.483-.48c-.601,0-1.099.16-1.495.48-.393.32-.684.74-.876,1.27-.188.53-.281,1.1-.281,1.73s.093,1.21.281,1.73c.192.53.483.95.876,1.26.396.32.894.47,1.495.47Zm6.344,1.41v-9.82h1.847v1.56h.102c.179-.53.495-.94.947-1.24.455-.31.971-.47,1.546-.47.12,0,.26.01.422.02.166.01.296.02.39.03v1.83c-.077-.02-.213-.05-.409-.07-.196-.03-.392-.05-.588-.05-.452,0-.854.1-1.208.29-.35.19-.626.45-.831.79-.205.33-.307.71-.307,1.13v6h-1.911Zm13.905-7.42l-1.732.31c-.072-.23-.187-.44-.345-.64-.153-.2-.362-.36-.626-.49-.265-.13-.595-.19-.991-.19-.541,0-.993.12-1.355.36-.363.24-.544.55-.544.93c0,.33.122.59.365.79s.635.37,1.176.49l1.559.36c.904.21,1.577.53,2.02.97.444.43.665,1,.665,1.69c0,.59-.17,1.11-.511,1.57-.337.46-.808.82-1.413,1.08-.601.26-1.297.39-2.09.39-1.1,0-1.997-.24-2.691-.7-.695-.48-1.121-1.15-1.279-2.02l1.848-.28c.115.48.351.85.709,1.09.358.25.825.37,1.4.37.627,0,1.127-.13,1.502-.39.375-.27.563-.59.563-.97c0-.3-.115-.56-.345-.77-.226-.21-.574-.37-1.042-.47l-1.662-.37c-.916-.21-1.594-.54-2.033-1-.435-.45-.652-1.03-.652-1.73c0-.58.162-1.08.486-1.52.324-.43.771-.77,1.342-1.02.571-.24,1.225-.37,1.963-.37c1.061,0,1.896.23,2.505.69.61.46,1.012,1.07,1.208,1.84Z" fill="#757575"/><path d="M448.785,1113.91v13.09h-2.371v-10.78h-.077l-3.062,1.95v-2.17l3.254-2.09h2.256Zm8.289,0v13.09h-2.372v-10.78h-.076l-3.062,1.95v-2.17l3.253-2.09h2.257Zm3.694,13.23c-.388,0-.72-.14-.997-.41s-.414-.6-.409-1c-.005-.38.132-.71.409-.98s.609-.41.997-.41c.375,0,.701.14.978.41.281.27.424.6.428.98-.004.26-.072.5-.204.71-.128.22-.299.39-.512.52-.208.12-.439.18-.69.18Zm7.803.04c-.853,0-1.615-.16-2.289-.48-.673-.32-1.208-.77-1.604-1.33-.392-.56-.601-1.21-.627-1.93h2.302c.042.54.274.98.696,1.32.422.33.929.5,1.522.5.464,0,.877-.11,1.24-.32.362-.21.647-.51.856-.89s.311-.81.307-1.29c.004-.5-.1-.94-.313-1.32s-.505-.69-.876-.9c-.371-.22-.797-.33-1.278-.33-.392-.01-.778.06-1.157.21-.38.15-.68.35-.902.59l-2.141-.35.684-6.75h7.594v1.98h-5.632l-.377,3.47h.077c.243-.28.586-.52,1.029-.71s.929-.29,1.458-.29c.792,0,1.5.19,2.122.57.622.37,1.112.88,1.47,1.53s.537,1.4.537,2.24c0,.86-.201,1.63-.601,2.31-.396.68-.948,1.21-1.656,1.59-.703.39-1.517.58-2.441.58Zm6.243-2.61v-1.88l5.554-8.78h1.573v2.68h-.959l-3.739,5.93v.1h7.753v1.95h-10.182Zm6.245,2.43v-3l.025-.85v-9.24h2.237v13.09h-2.262Zm12.619-2.45v-.69c0-.51.106-.98.319-1.4.218-.43.533-.77.946-1.03.414-.26.914-.39,1.502-.39.606,0,1.113.13,1.522.39.409.25.718.59.927,1.02.213.43.319.89.319,1.41v.69c0,.5-.106.97-.319,1.4-.213.42-.527.76-.94,1.02-.409.26-.912.39-1.509.39-.596,0-1.101-.13-1.514-.39-.414-.26-.727-.6-.94-1.02-.209-.43-.313-.9-.313-1.4Zm1.668-.69v.69c0,.33.081.64.243.92s.447.42.856.42c.414,0,.697-.13.851-.41.157-.28.236-.59.236-.93v-.69c0-.35-.074-.66-.224-.94-.149-.28-.436-.43-.863-.43-.4,0-.684.15-.85.43s-.249.59-.249.94Zm-8.322-6.81v-.69c0-.51.108-.98.326-1.4.217-.43.532-.77.946-1.03.413-.26.914-.39,1.502-.39.601,0,1.106.13,1.515.39.413.26.724.6.933,1.03.209.42.313.89.313,1.4v.69c0,.52-.106.98-.32,1.41-.208.42-.519.76-.933,1.02-.413.25-.916.38-1.508.38-.601,0-1.108-.13-1.522-.38-.409-.26-.72-.6-.933-1.03-.213-.42-.319-.89-.319-1.4Zm1.681-.69v.69c0,.34.079.66.236.94.162.27.448.41.857.41s.69-.14.843-.41c.158-.28.237-.6.237-.94v-.69c0-.34-.075-.65-.224-.93-.149-.29-.434-.43-.856-.43-.405,0-.689.14-.85.43-.162.29-.243.6-.243.93Zm-.953,10.64l9-13.09h1.598l-9,13.09h-1.598Z" fill="#fff"/></g><path d="M254.907,863.952c-5.358,3.266-7.065,10.267-3.666,15.541c25.705,39.88,57.496,75.49,94.217,105.534c4.857,3.974,12.005,3.069,15.856-1.886v0c3.851-4.955,2.946-12.082-1.905-16.062-34.553-28.346-64.496-61.886-88.758-99.42-3.407-5.27-10.386-6.974-15.744-3.707v0Z" fill="url(#eVlCmdxMEUy25-fill)" fill-opacity="0.12"/><g transform="translate(-36.822192 53.322502)"><path d="M42.505,1001v-13.091h1.9751v11.391h5.9318v1.7h-7.9069Zm13.7824.2c-.9205,0-1.7238-.21-2.4098-.63-.6861-.43-1.2188-1.017-1.598-1.775-.3793-.759-.5689-1.645-.5689-2.659c0-1.019.1896-1.909.5689-2.672.3792-.763.9119-1.355,1.598-1.777.686-.422,1.4893-.633,2.4098-.633s1.7237.211,2.4098.633c.686.422,1.2187,1.014,1.598,1.777.3792.763.5689,1.653.5689,2.672c0,1.014-.1897,1.9-.5689,2.659-.3793.758-.912,1.345-1.598,1.775-.6861.42-1.4894.63-2.4098.63Zm.0064-1.606c.5966,0,1.0909-.158,1.4829-.473.3921-.316.6818-.735.8693-1.259.1918-.525.2877-1.102.2877-1.733c0-.626-.0959-1.201-.2877-1.726-.1875-.528-.4772-.952-.8693-1.272-.392-.319-.8863-.479-1.4829-.479-.6009,0-1.0995.16-1.4958.479-.392.32-.6839.744-.8757,1.272-.1875.525-.2812,1.1-.2812,1.726c0,.631.0937,1.208.2812,1.733.1918.524.4837.943.8757,1.259.3963.315.8949.473,1.4958.473Zm10.4793,1.606c-.9503,0-1.7685-.22-2.4546-.65-.6818-.43-1.2059-1.031-1.5724-1.794-.3665-.762-.5497-1.636-.5497-2.62c0-.998.1875-1.877.5625-2.64.375-.767.9034-1.366,1.5852-1.796.6818-.431,1.4851-.646,2.4098-.646.7457,0,1.4105.138,1.9943.415.5838.273,1.0547.657,1.4127,1.151.3622.494.5774,1.072.6456,1.732h-1.8601c-.1023-.46-.3367-.856-.7032-1.189-.3622-.332-.848-.498-1.4573-.498-.5327,0-.9993.14-1.3999.422-.3963.277-.7053.673-.9268,1.189-.2216.511-.3324,1.116-.3324,1.815c0,.716.1086,1.334.326,1.854.2173.519.5241.922.9204,1.208.4006.285.8715.428,1.4127.428.3622,0,.6903-.066.9843-.198.2983-.137.5476-.33.7479-.582.2045-.251.3473-.554.4283-.908h1.8601c-.0682.635-.2749,1.202-.6201,1.701-.3451.496-.8075.886-1.387,1.176-.5753.29-1.2508.43-2.0263.43Zm7.475-3.53l-.0128-2.333h.3324l3.912-4.155h2.2883l-4.4616,4.73h-.3005l-1.7578,1.758ZM72.4903,1001v-13.091h1.9112v13.091h-1.9112Zm6.2003,0l-3.5156-4.666l1.3167-1.336L81.0365,1001h-2.3459Zm7.2865.2c-.9674,0-1.8004-.21-2.4993-.62-.6946-.42-1.2315-1.005-1.6108-1.76-.375-.758-.5625-1.647-.5625-2.665c0-1.006.1875-1.892.5625-2.659.3793-.767.9077-1.366,1.5852-1.796.6818-.431,1.4787-.646,2.3906-.646.554,0,1.091.092,1.6108.275.5199.183.9865.471,1.3999.863s.7393.901.978,1.527c.2386.623.3579,1.379.3579,2.27v.677h-7.8047v-1.432h5.9319c0-.502-.1023-.948-.3069-1.336-.2045-.392-.4921-.701-.8629-.926-.3665-.226-.7969-.339-1.2912-.339-.5369,0-1.0057.132-1.4062.396-.3963.26-.7031.601-.9205,1.023-.213.417-.3196.871-.3196,1.361v1.119c0,.656.1151,1.214.3452,1.675.2344.46.5604.811.978,1.054.4176.239.9055.358,1.4638.358.3622,0,.6924-.051.9907-.153.2983-.107.5561-.264.7735-.473s.3835-.467.4985-.774l1.809.326c-.1449.533-.4048,1-.7798,1.4-.3708.395-.8374.705-1.3999.925-.5582.22-1.1953.33-1.9112.33Zm9.6483-.01c-.7926,0-1.5-.2-2.1221-.61-.6179-.4-1.1037-.986-1.4574-1.741-.3495-.758-.5242-1.668-.5242-2.729s.1769-1.969.5306-2.723c.3579-.754.848-1.332,1.4701-1.732.6222-.401,1.3275-.601,2.1158-.601.6094,0,1.0994.102,1.4702.307.375.2.6648.434.8693.703.2088.268.3707.505.4858.709h.115v-4.864h1.9115v13.091h-1.8667v-1.528h-.1598c-.1151.209-.2813.448-.4986.718-.2131.27-.5071.5-.8821.7s-.8608.3-1.4574.3Zm.4219-1.628c.5497,0,1.0142-.145,1.3935-.435.3835-.294.6733-.701.8693-1.221.2003-.52.3004-1.125.3004-1.815c0-.682-.098-1.279-.294-1.79s-.4837-.91-.863-1.195c-.3792-.286-.848-.428-1.4062-.428-.5753,0-1.0547.149-1.4382.447s-.6733.705-.8693,1.221c-.1918.516-.2877,1.097-.2877,1.745c0,.656.098,1.246.2941,1.771.196.524.4858.939.8693,1.246.3878.303.865.454,1.4318.454Zm17.4337-2.634v-5.746h1.917v9.818h-1.879v-1.7h-.102c-.226.524-.588.96-1.087,1.31-.494.35-1.11.52-1.847.52-.631,0-1.189-.14-1.675-.42-.481-.28-.861-.69-1.138-1.244-.272-.55-.409-1.229-.409-2.039v-6.245h1.911v6.015c0,.669.186,1.201.557,1.598.37.396.852.594,1.444.594.358,0,.714-.089,1.068-.268.358-.179.654-.45.888-.812.239-.362.356-.822.352-1.381Zm6.037-1.758v5.83h-1.912v-9.818h1.835v1.598h.121c.226-.52.58-.938,1.061-1.253.486-.315,1.098-.473,1.835-.473.669,0,1.255.141,1.758.422.503.277.892.69,1.169,1.24s.416,1.229.416,2.039v6.245h-1.911v-6.015c0-.712-.186-1.268-.556-1.668-.371-.405-.88-.607-1.528-.607-.443,0-.837.095-1.183.287-.341.192-.611.473-.811.844-.196.366-.294.81-.294,1.329Zm13.069-3.988v1.534h-5.363v-1.534h5.363Zm-3.924-2.352h1.911v9.287c0,.371.055.65.166.838.111.183.253.308.428.377.179.064.373.096.582.096.153,0,.288-.011.403-.032.115-.022.204-.039.268-.052l.345,1.576c-.111.05-.268.09-.473.13-.204.05-.46.07-.767.08-.503.01-.971-.08-1.406-.27s-.786-.48-1.055-.87c-.268-.392-.402-.884-.402-1.477v-9.683Zm5.678,12.17v-9.818h1.912v9.818h-1.912Zm.966-11.333c-.333,0-.618-.111-.857-.332-.234-.226-.351-.495-.351-.806c0-.315.117-.584.351-.805.239-.226.524-.339.857-.339.332,0,.615.113.85.339.238.221.358.49.358.805c0,.311-.12.58-.358.806-.235.221-.518.332-.85.332Zm5.068-1.758v13.091h-1.911v-13.091h1.911Zm10.731,16.981c-.779,0-1.451-.11-2.013-.31-.558-.2-1.014-.48-1.368-.81-.354-.34-.618-.71-.793-1.11l1.643-.68c.115.19.269.39.46.6.196.21.461.39.793.54.337.15.769.23,1.298.23.724,0,1.323-.18,1.796-.53s.709-.91.709-1.68v-1.93h-.121c-.115.209-.281.441-.499.697-.213.253-.507.473-.882.663s-.863.28-1.464.28c-.775,0-1.474-.18-2.096-.54-.618-.367-1.108-.906-1.47-1.618-.358-.715-.537-1.595-.537-2.639s.176-1.939.53-2.685c.358-.746.848-1.317,1.47-1.713.623-.401,1.328-.601,2.116-.601.61,0,1.102.102,1.477.307.375.2.667.434.875.703.213.268.378.505.493.709h.14v-1.591h1.873v10.038c0,.84-.196,1.53-.588,2.07-.392.55-.923.95-1.592,1.21-.664.26-1.414.39-2.25.39Zm-.019-5.622c.55,0,1.014-.128,1.394-.384.383-.26.673-.63.869-1.112.2-.486.3-1.067.3-1.745c0-.661-.098-1.242-.294-1.745s-.483-.895-.863-1.176c-.379-.286-.848-.428-1.406-.428-.575,0-1.054.149-1.438.447-.384.294-.673.695-.869,1.202-.192.507-.288,1.074-.288,1.7c0,.643.098,1.208.294,1.694s.486.865.869,1.138c.388.272.865.409,1.432.409Zm9.51,1.952c-.623,0-1.185-.12-1.688-.35s-.901-.57-1.195-1.014c-.29-.443-.435-.987-.435-1.63c0-.554.107-1.01.32-1.368s.5-.641.863-.85c.362-.209.767-.367,1.214-.473.448-.107.903-.188,1.368-.243.588-.068,1.065-.124,1.432-.166.366-.047.633-.122.799-.224s.249-.268.249-.499v-.044c0-.559-.158-.991-.473-1.298-.311-.307-.775-.46-1.393-.46-.644,0-1.151.143-1.522.428-.366.281-.62.595-.76.94l-1.797-.409c.214-.597.525-1.078.934-1.445.413-.371.888-.639,1.425-.805.537-.171,1.102-.256,1.694-.256.392,0,.808.047,1.246.141.444.089.857.255,1.241.498.387.243.705.59.952,1.042.247.448.371,1.029.371,1.745v6.52h-1.867v-1.342h-.076c-.124.247-.309.492-.557.732-.247.23-.564.43-.952.59s-.852.24-1.393.24Zm.415-1.537c.528,0,.98-.104,1.355-.313.379-.209.667-.482.863-.818.2-.341.3-.705.3-1.093v-1.266c-.068.068-.2.132-.396.192-.192.055-.411.104-.658.147-.247.038-.488.075-.723.109-.234.029-.43.055-.588.076-.37.047-.709.126-1.016.237-.302.111-.545.27-.729.479-.179.205-.268.478-.268.818c0,.473.175.831.524,1.074.35.239.795.358,1.336.358Zm6.615,1.317v-9.818h1.835v1.598h.121c.205-.541.539-.963,1.004-1.266.464-.307,1.02-.46,1.668-.46.656,0,1.206.153,1.649.46.448.307.778.729.991,1.266h.102c.235-.524.608-.942,1.119-1.253.511-.315,1.121-.473,1.828-.473.891,0,1.617.279,2.18.837.567.559.85,1.4.85,2.525v6.584h-1.911v-6.405c0-.665-.181-1.146-.544-1.444-.362-.299-.794-.448-1.297-.448-.622,0-1.106.192-1.451.575-.345.38-.518.868-.518,1.464v6.258h-1.905v-6.526c0-.533-.166-.961-.498-1.285-.333-.324-.765-.486-1.298-.486-.362,0-.697.096-1.003.288-.303.187-.548.449-.736.786-.183.337-.274.727-.274,1.17v6.053h-1.912Zm19.78.2c-.967,0-1.8-.21-2.499-.62-.695-.42-1.232-1.005-1.611-1.76-.375-.758-.563-1.647-.563-2.665c0-1.006.188-1.892.563-2.659.379-.767.908-1.366,1.585-1.796.682-.431,1.479-.646,2.391-.646.554,0,1.091.092,1.611.275s.986.471,1.4.863c.413.392.739.901.977,1.527.239.623.358,1.379.358,2.27v.677h-7.804v-1.432h5.932c0-.502-.103-.948-.307-1.336-.205-.392-.492-.701-.863-.926-.367-.226-.797-.339-1.291-.339-.537,0-1.006.132-1.407.396-.396.26-.703.601-.92,1.023-.213.417-.32.871-.32,1.361v1.119c0,.656.115,1.214.345,1.675.235.46.561.811.978,1.054.418.239.906.358,1.464.358.362,0,.693-.051.991-.153.298-.107.556-.264.773-.473.218-.209.384-.467.499-.774l1.809.326c-.145.533-.405,1-.78,1.4-.371.395-.837.705-1.4.925-.558.22-1.195.33-1.911.33Zm12.288-13.291v13.091h-1.911v-13.091h1.911Zm5.068,13.311c-.622,0-1.184-.12-1.687-.35s-.901-.57-1.195-1.014c-.29-.443-.435-.987-.435-1.63c0-.554.106-1.01.319-1.368.214-.358.501-.641.863-.85.363-.209.767-.367,1.215-.473.447-.107.903-.188,1.368-.243.588-.068,1.065-.124,1.432-.166.366-.047.632-.122.799-.224.166-.102.249-.268.249-.499v-.044c0-.559-.158-.991-.473-1.298-.311-.307-.776-.46-1.394-.46-.643,0-1.15.143-1.521.428-.366.281-.62.595-.761.94l-1.796-.409c.213-.597.524-1.078.934-1.445.413-.371.888-.639,1.425-.805.537-.171,1.102-.256,1.694-.256.392,0,.807.047,1.246.141.443.089.857.255,1.24.498.388.243.706.59.953,1.042.247.448.371,1.029.371,1.745v6.52h-1.867v-1.342h-.077c-.123.247-.309.492-.556.732-.247.23-.564.43-.952.59s-.852.24-1.394.24Zm.416-1.537c.528,0,.98-.104,1.355-.313.379-.209.667-.482.863-.818.2-.341.3-.705.3-1.093v-1.266c-.068.068-.2.132-.396.192-.192.055-.411.104-.658.147-.248.038-.488.075-.723.109-.234.029-.43.055-.588.076-.371.047-.709.126-1.016.237-.303.111-.546.27-.729.479-.179.205-.268.478-.268.818c0,.473.174.831.524,1.074.349.239.795.358,1.336.358Zm12.835-2.755v-5.746h1.917v9.818h-1.879v-1.7h-.102c-.226.524-.588.96-1.087,1.31-.494.35-1.11.52-1.847.52-.631,0-1.189-.14-1.675-.42-.482-.28-.861-.69-1.138-1.244-.272-.55-.409-1.229-.409-2.039v-6.245h1.911v6.015c0,.669.186,1.201.556,1.598.371.396.853.594,1.445.594.358,0,.714-.089,1.068-.268.357-.179.654-.45.888-.812.239-.362.356-.822.352-1.381Zm6.036-1.758v5.83h-1.911v-9.818h1.835v1.598h.121c.226-.52.58-.938,1.061-1.253.486-.315,1.098-.473,1.835-.473.669,0,1.255.141,1.758.422.502.277.892.69,1.169,1.24s.416,1.229.416,2.039v6.245h-1.911v-6.015c0-.712-.186-1.268-.557-1.668-.37-.405-.879-.607-1.527-.607-.443,0-.838.095-1.183.287-.341.192-.611.473-.812.844-.196.366-.294.81-.294,1.329Zm12.623,6.03c-.951,0-1.769-.22-2.455-.65-.682-.43-1.206-1.031-1.572-1.794-.367-.762-.55-1.636-.55-2.62c0-.998.187-1.877.562-2.64.375-.767.904-1.366,1.586-1.796.682-.431,1.485-.646,2.41-.646.745,0,1.41.138,1.994.415.584.273,1.055.657,1.412,1.151.363.494.578,1.072.646,1.732h-1.86c-.102-.46-.337-.856-.703-1.189-.362-.332-.848-.498-1.458-.498-.532,0-.999.14-1.399.422-.397.277-.706.673-.927,1.189-.222.511-.333,1.116-.333,1.815c0,.716.109,1.334.326,1.854.218.519.525.922.921,1.208.4.285.871.428,1.412.428.363,0,.691-.066.985-.198.298-.137.547-.33.748-.582.204-.251.347-.554.428-.908h1.86c-.068.635-.275,1.202-.62,1.701-.345.496-.807.886-1.387,1.176-.575.29-1.251.43-2.026.43Zm7.628-6.03v5.83h-1.911v-13.091h1.886v4.871h.121c.23-.529.582-.948,1.055-1.259s1.091-.467,1.853-.467c.674,0,1.262.138,1.765.415.507.277.899.691,1.176,1.241.281.545.422,1.227.422,2.045v6.245h-1.912v-6.015c0-.72-.185-1.278-.556-1.675-.37-.4-.886-.6-1.547-.6-.451,0-.856.095-1.214.287-.354.192-.633.473-.837.844-.201.366-.301.81-.301,1.329Z" fill="#757575"/><path d="M126.726,967.179c-.853,0-1.616-.16-2.289-.479-.673-.324-1.208-.767-1.604-1.33-.392-.562-.601-1.206-.627-1.93h2.301c.043.537.275.975.697,1.316.422.337.929.505,1.522.505.464,0,.877-.106,1.24-.319.362-.213.647-.509.856-.889.209-.379.311-.812.307-1.297.004-.495-.1-.934-.313-1.317-.213-.384-.505-.684-.876-.901-.371-.222-.797-.333-1.278-.333-.392-.004-.778.068-1.157.218-.38.149-.68.345-.902.588l-2.141-.352.684-6.75h7.594v1.982h-5.632l-.377,3.471h.077c.243-.286.586-.523,1.029-.71.443-.192.929-.288,1.457-.288.793,0,1.5.188,2.123.563.622.371,1.112.882,1.47,1.534s.537,1.398.537,2.237c0,.865-.201,1.637-.601,2.314-.397.673-.948,1.204-1.656,1.592-.703.383-1.517.575-2.441.575Zm7.491-.038c-.388,0-.721-.137-.998-.409-.277-.273-.413-.606-.409-.998-.004-.383.132-.711.409-.984s.61-.409.998-.409c.375,0,.701.136.978.409.281.273.424.601.428.984-.004.26-.073.497-.205.71-.128.213-.298.383-.511.511-.209.124-.439.186-.69.186Zm3.467-.141l5.567-11.02v-.089h-6.462v-1.982h8.917v2.026L140.145,967h-2.461Zm10.556,0l5.567-11.02v-.089h-6.462v-1.982h8.917v2.026L150.701,967h-2.461Zm16.724-2.455v-.69c0-.507.107-.974.32-1.4.217-.426.532-.769.946-1.029.413-.26.914-.39,1.502-.39.605,0,1.112.13,1.521.39.409.256.718.597.927,1.023.213.426.32.895.32,1.406v.69c0,.508-.107.974-.32,1.4s-.526.769-.94,1.029c-.409.26-.912.39-1.508.39-.597,0-1.102-.13-1.515-.39s-.727-.603-.94-1.029c-.208-.426-.313-.892-.313-1.4Zm1.668-.69v.69c0,.337.081.646.243.927.162.282.448.422.857.422.413,0,.697-.138.85-.415.158-.282.237-.593.237-.934v-.69c0-.341-.075-.652-.224-.933-.149-.286-.437-.428-.863-.428-.401,0-.684.142-.85.428-.166.281-.25.592-.25.933Zm-8.322-6.801v-.69c0-.512.109-.98.326-1.407.217-.426.533-.767.946-1.022.413-.26.914-.39,1.502-.39.601,0,1.106.13,1.515.39.413.255.725.596.933,1.022.209.427.314.895.314,1.407v.69c0,.511-.107.98-.32,1.406-.209.422-.52.761-.933,1.017-.414.255-.917.383-1.509.383-.601,0-1.108-.128-1.521-.383-.409-.256-.72-.597-.933-1.023s-.32-.893-.32-1.4Zm1.681-.69v.69c0,.341.079.652.237.933.162.277.447.416.856.416s.69-.139.844-.416c.158-.281.236-.592.236-.933v-.69c0-.341-.074-.652-.223-.934-.149-.285-.435-.428-.857-.428-.405,0-.688.143-.85.428-.162.286-.243.597-.243.934ZM159.039,967l9-13.091h1.598l-9,13.091h-1.598Z" fill="#fff"/></g><path d="M198.717,546.43c-6.154-1.23-12.154,2.761-13.229,8.944-16.768,96.384-1.982,195.62,42.154,282.93c2.831,5.6,9.734,7.669,15.262,4.698v0c5.528-2.97,7.587-9.854,4.763-15.458-41.645-82.652-55.63-176.514-39.888-267.716c1.068-6.184-2.908-12.168-9.062-13.398v0Z" fill="url(#eVlCmdxMEUy29-fill)" fill-opacity="0.12"/><g id="eVlCmdxMEUy30_to" style="offset-path:path('M11.02684,743.890434C-53.622067,403.789955,169.675552,75.675747,509.776032,11.02684C849.876511,-53.622067,1177.990719,169.675552,1242.639626,509.776032C1307.288533,849.876511,1083.990914,1177.990719,743.890434,1242.639626C403.789955,1307.288533,75.675747,1083.990914,11.02684,743.890434');offset-rotate:0deg"><g transform="translate(-112.744449,-711.380981)"><path d="M90.8219,723.609v-1.7h10.1311v1.7h-4.0843v11.391h-1.9687v-11.391h-4.0781Zm14.6641,11.589c-.967,0-1.8-.207-2.499-.62-.695-.417-1.231-1.003-1.611-1.758-.375-.758-.562-1.647-.562-2.665c0-1.006.187-1.892.562-2.659.38-.767.908-1.366,1.586-1.796.681-.431,1.478-.646,2.39-.646.554,0,1.091.092,1.611.275s.986.471,1.4.863c.413.392.739.901.978,1.527.238.623.358,1.379.358,2.27v.677h-7.805v-1.432h5.932c0-.502-.102-.948-.307-1.336-.204-.392-.492-.701-.863-.926-.366-.226-.797-.339-1.291-.339-.537,0-1.006.132-1.406.396-.397.26-.703.601-.921,1.023-.213.417-.319.871-.319,1.361v1.119c0,.656.115,1.214.345,1.675.234.46.56.811.978,1.054.417.239.905.358,1.464.358.362,0,.692-.051.99-.153.299-.107.556-.264.774-.473.217-.209.383-.467.498-.774l1.809.326c-.145.533-.405,1-.78,1.4-.37.397-.837.706-1.399.927-.559.217-1.196.326-1.912.326Zm8.831.019c-.623,0-1.185-.115-1.688-.345-.503-.234-.901-.573-1.195-1.016-.29-.443-.435-.987-.435-1.63c0-.554.107-1.01.32-1.368s.5-.641.863-.85c.362-.209.767-.367,1.214-.473.448-.107.903-.188,1.368-.243.588-.068,1.065-.124,1.432-.166.366-.047.633-.122.799-.224s.249-.268.249-.499v-.044c0-.559-.158-.991-.473-1.298-.311-.307-.775-.46-1.393-.46-.644,0-1.151.143-1.522.428-.366.281-.62.595-.76.94l-1.797-.409c.214-.597.525-1.078.934-1.445.413-.371.888-.639,1.425-.805.537-.171,1.102-.256,1.694-.256.392,0,.808.047,1.246.141.444.089.857.255,1.241.498.387.243.705.59.952,1.042.247.448.371,1.029.371,1.745v6.52h-1.867v-1.342h-.076c-.124.247-.309.49-.557.728-.247.239-.564.437-.952.595-.388.157-.852.236-1.393.236Zm.415-1.534c.528,0,.98-.104,1.355-.313.379-.209.667-.482.863-.818.2-.341.3-.705.3-1.093v-1.266c-.068.068-.2.132-.396.192-.192.055-.411.104-.658.147-.247.038-.488.075-.723.109-.234.029-.43.055-.588.076-.37.047-.709.126-1.016.237-.302.111-.545.27-.729.479-.179.205-.268.478-.268.818c0,.473.175.831.524,1.074.35.239.795.358,1.336.358ZM121.347,735v-9.818h1.835v1.598h.121c.205-.541.539-.963,1.004-1.266.464-.307,1.02-.46,1.668-.46.656,0,1.206.153,1.649.46.448.307.778.729.991,1.266h.102c.235-.524.608-.942,1.119-1.253.511-.315,1.121-.473,1.828-.473.891,0,1.617.279,2.18.837.567.559.85,1.4.85,2.525v6.584h-1.911v-6.405c0-.665-.181-1.146-.544-1.444-.362-.299-.794-.448-1.297-.448-.622,0-1.106.192-1.451.575-.345.38-.518.868-.518,1.464v6.258h-1.905v-6.526c0-.533-.166-.961-.498-1.285-.333-.324-.765-.486-1.298-.486-.362,0-.697.096-1.003.288-.303.187-.548.449-.736.786-.183.337-.274.727-.274,1.17v6.053h-1.912Z" fill="#757575"/><path d="M88.9319,687.909v13.091h-2.3715v-10.783h-.0767l-3.0618,1.956v-2.174l3.2536-2.09h2.2564Zm7.515,13.27c-.8523,0-1.6151-.16-2.2884-.479-.6733-.324-1.2081-.767-1.6044-1.33-.392-.562-.6008-1.206-.6264-1.93h2.3011c.0426.537.2749.975.6968,1.316.4218.337.9289.505,1.5213.505.4645,0,.8778-.106,1.24-.319s.6478-.509.8566-.889c.2088-.379.311-.812.3068-1.297.0042-.495-.1002-.934-.3132-1.317-.2131-.384-.505-.684-.8757-.901-.3708-.222-.7969-.333-1.2784-.333-.3921-.004-.7777.068-1.157.218-.3793.149-.6797.345-.9013.588l-2.1413-.352.6839-6.75h7.5937v1.982h-5.6313l-.3771,3.471h.0767c.2429-.286.5859-.523,1.0291-.71.4432-.192.929-.288,1.4574-.288.7926,0,1.5.188,2.1221.563.6222.371,1.1121.882,1.4701,1.534s.537,1.398.537,2.237c0,.865-.2,1.637-.601,2.314-.396.673-.948,1.204-1.6554,1.592-.7031.383-1.517.575-2.4417.575Zm7.4911-.038c-.388,0-.72-.137-.997-.409-.277-.273-.414-.606-.409-.998-.005-.383.132-.711.409-.984s.609-.409.997-.409c.375,0,.701.136.978.409.281.273.424.601.428.984-.004.26-.072.497-.204.71-.128.213-.299.383-.512.511-.209.124-.439.186-.69.186Zm7.668.038c-.92,0-1.738-.158-2.454-.473-.712-.315-1.274-.754-1.688-1.317-.413-.562-.633-1.212-.658-1.949h2.403c.022.353.139.662.352.926.213.26.496.463.85.608s.75.217,1.189.217c.469,0,.884-.081,1.246-.243.363-.166.646-.396.851-.69.204-.294.304-.633.3-1.017.004-.396-.098-.745-.307-1.048-.209-.302-.511-.539-.908-.709-.392-.171-.865-.256-1.419-.256h-1.157v-1.828h1.157c.456,0,.855-.079,1.196-.237.345-.157.615-.379.812-.664.196-.29.291-.625.287-1.004.004-.371-.079-.692-.249-.965-.166-.277-.403-.492-.71-.646-.302-.153-.658-.23-1.067-.23-.401,0-.771.073-1.112.217-.341.145-.616.352-.825.62-.209.265-.32.58-.332.947h-2.282c.017-.733.228-1.377.633-1.931.409-.558.954-.993,1.636-1.304.682-.315,1.447-.473,2.295-.473.873,0,1.632.164,2.275.492.648.324,1.149.761,1.502,1.311.354.549.531,1.157.531,1.821.004.738-.213,1.356-.652,1.854-.435.499-1.006.825-1.713.978v.102c.92.128,1.626.469,2.116,1.023.494.55.739,1.234.735,2.052c0,.733-.209,1.389-.627,1.969-.413.575-.984,1.027-1.713,1.355-.724.328-1.555.492-2.493.492Zm11.32,0c-.95,0-1.794-.16-2.531-.479-.733-.32-1.308-.757-1.726-1.311-.413-.558-.618-1.191-.614-1.898-.004-.55.115-1.055.358-1.515s.571-.844.985-1.151c.417-.311.882-.509,1.393-.594v-.09c-.673-.149-1.219-.492-1.636-1.029-.413-.541-.618-1.165-.614-1.873-.004-.673.183-1.274.563-1.802.379-.529.899-.944,1.559-1.247.661-.306,1.415-.46,2.263-.46.84,0,1.588.154,2.244.46.66.303,1.18.718,1.559,1.247.384.528.576,1.129.576,1.802c0,.708-.211,1.332-.633,1.873-.418.537-.957.88-1.617,1.029v.09c.511.085.971.283,1.38.594.414.307.742.691.985,1.151.247.46.371.965.371,1.515c0,.707-.209,1.34-.627,1.898-.418.554-.993.991-1.726,1.311-.728.319-1.566.479-2.512.479Zm0-1.828c.49,0,.916-.083,1.279-.249.362-.171.643-.41.843-.716.201-.307.303-.661.307-1.061-.004-.418-.113-.787-.326-1.106-.209-.324-.496-.578-.863-.761-.362-.183-.775-.275-1.24-.275-.469,0-.886.092-1.253.275-.366.183-.656.437-.869.761-.209.319-.311.688-.307,1.106-.004.4.094.754.294,1.061.201.302.482.539.844.709.366.171.797.256,1.291.256Zm0-5.964c.401,0,.754-.081,1.061-.243.311-.162.556-.388.735-.677.179-.29.271-.625.275-1.004-.004-.375-.094-.703-.268-.984-.175-.286-.418-.505-.729-.659-.311-.157-.669-.236-1.074-.236-.413,0-.778.079-1.093.236-.311.154-.554.373-.729.659-.17.281-.253.609-.249.984-.004.379.081.714.256,1.004.179.285.424.511.735.677.315.162.675.243,1.08.243Zm13.605,5.158v-.69c0-.507.107-.974.32-1.4.217-.426.532-.769.946-1.029.413-.26.914-.39,1.502-.39.605,0,1.112.13,1.521.39.409.256.718.597.927,1.023.213.426.32.895.32,1.406v.69c0,.508-.107.974-.32,1.4s-.526.769-.94,1.029c-.409.26-.911.39-1.508.39s-1.102-.13-1.515-.39-.727-.603-.94-1.029c-.208-.426-.313-.892-.313-1.4Zm1.669-.69v.69c0,.337.08.646.242.927.162.282.448.422.857.422.413,0,.697-.138.85-.415.158-.282.237-.593.237-.934v-.69c0-.341-.075-.652-.224-.933-.149-.286-.437-.428-.863-.428-.401,0-.684.142-.85.428-.166.281-.249.592-.249.933Zm-8.323-6.801v-.69c0-.512.109-.98.326-1.407.217-.426.533-.767.946-1.022.413-.26.914-.39,1.502-.39.601,0,1.106.13,1.515.39.413.255.725.596.933,1.022.209.427.314.895.314,1.407v.69c0,.511-.107.98-.32,1.406-.209.422-.52.761-.933,1.017-.414.255-.916.383-1.509.383-.601,0-1.108-.128-1.521-.383-.409-.256-.72-.597-.933-1.023s-.32-.893-.32-1.4Zm1.681-.69v.69c0,.341.079.652.237.933.162.277.447.416.856.416s.691-.139.844-.416c.158-.281.236-.592.236-.933v-.69c0-.341-.074-.652-.223-.934-.149-.285-.435-.428-.857-.428-.405,0-.688.143-.85.428-.162.286-.243.597-.243.934ZM130.606,701l9-13.091h1.598l-9,13.091h-1.598Z" fill="#fff"/></g></g><circle r="162.5" transform="translate(633.263 638.264)" fill="url(#eVlCmdxMEUy33-fill)" fill-opacity="0.12"/><circle r="162.5" transform="translate(633.263 638.264)" fill="#121a5f" fill-opacity="0.49"/><path d="M582.485,615.661v-1.988h10.445v1.988h-4.046v11.103h-2.352v-11.103h-4.047Zm14.855,11.294c-.959,0-1.79-.211-2.493-.633-.703-.421-1.248-1.012-1.636-1.77-.384-.759-.575-1.645-.575-2.659s.191-1.903.575-2.666c.388-.762.933-1.355,1.636-1.777s1.534-.632,2.493-.632s1.79.21,2.493.632s1.246,1.015,1.63,1.777c.388.763.582,1.652.582,2.666s-.194,1.9-.582,2.659c-.384.758-.927,1.349-1.63,1.77-.703.422-1.534.633-2.493.633Zm.013-1.853c.52,0,.954-.143,1.304-.429.349-.289.609-.677.78-1.163.174-.486.262-1.027.262-1.624c0-.6-.088-1.144-.262-1.63-.171-.49-.431-.88-.78-1.169-.35-.29-.784-.435-1.304-.435-.533,0-.976.145-1.33.435-.349.289-.611.679-.786,1.169-.17.486-.256,1.03-.256,1.63c0,.597.086,1.138.256,1.624.175.486.437.874.786,1.163.354.286.797.429,1.33.429Zm11.198-8.157v1.79h-5.644v-1.79h5.644Zm-4.25-2.352h2.314v9.217c0,.312.046.55.14.716.098.162.226.273.384.333.157.059.332.089.524.089.145,0,.277-.01.396-.032.124-.021.217-.04.281-.057l.39,1.809c-.123.042-.3.089-.53.14-.226.051-.503.081-.831.09-.58.017-1.102-.071-1.566-.262-.465-.196-.833-.499-1.106-.908-.269-.409-.401-.92-.396-1.534v-9.601Zm8.651,12.369c-.622,0-1.183-.111-1.681-.333-.495-.226-.887-.558-1.176-.997-.286-.439-.429-.98-.429-1.623c0-.554.103-1.012.307-1.375.205-.362.484-.652.837-.869.354-.217.753-.381,1.196-.492.447-.115.91-.198,1.387-.25.575-.059,1.042-.112,1.4-.159.358-.051.618-.128.78-.23.166-.107.249-.271.249-.493v-.038c0-.481-.143-.854-.428-1.119-.286-.264-.697-.396-1.234-.396-.567,0-1.016.124-1.349.371-.328.247-.55.539-.665.876l-2.16-.307c.17-.597.452-1.095.844-1.496.392-.405.871-.707,1.438-.908.567-.204,1.193-.306,1.879-.306.473,0,.944.055,1.413.166s.897.294,1.285.549c.387.252.698.595.933,1.03.238.434.358.978.358,1.63v6.571h-2.225v-1.349h-.076c-.141.273-.339.528-.595.767-.251.234-.569.424-.952.569-.38.14-.825.211-1.336.211Zm.601-1.701c.464,0,.867-.091,1.208-.274.341-.188.603-.435.786-.742.187-.307.281-.641.281-1.003v-1.157c-.072.059-.196.115-.371.166-.17.051-.362.096-.575.134s-.424.072-.633.102c-.208.03-.39.056-.543.077-.345.047-.654.124-.927.23-.273.107-.488.256-.645.448-.158.187-.237.43-.237.728c0,.426.156.748.467.965.311.218.707.326,1.189.326Zm8.863-11.588v13.091h-2.314v-13.091h2.314Zm13.341,3.598c-.059-.558-.311-.993-.754-1.304-.439-.311-1.01-.466-1.713-.466-.494,0-.918.074-1.272.223-.354.15-.624.352-.812.608-.187.255-.283.547-.288.875c0,.273.062.51.186.71.128.2.3.371.518.511.217.137.458.252.722.345.264.094.53.173.799.237l1.227.307c.495.115.97.27,1.426.466.46.196.871.444,1.233.742.367.298.657.658.87,1.08s.319.916.319,1.483c0,.767-.196,1.443-.588,2.026-.392.58-.959,1.034-1.7,1.362-.737.324-1.63.486-2.678.486-1.019,0-1.903-.158-2.653-.473-.746-.316-1.33-.776-1.752-1.381-.417-.605-.643-1.342-.677-2.212h2.333c.034.456.175.836.422,1.138.247.303.569.529.965.678.401.149.848.223,1.342.223.516,0,.968-.076,1.356-.23.392-.157.698-.375.92-.652.222-.281.335-.609.339-.984-.004-.341-.105-.622-.301-.844-.196-.226-.471-.413-.824-.562-.35-.154-.759-.29-1.228-.409l-1.489-.384c-1.078-.277-1.93-.697-2.557-1.259-.622-.567-.933-1.319-.933-2.257c0-.771.209-1.446.627-2.026.421-.579.995-1.029,1.719-1.349.724-.323,1.545-.485,2.461-.485.929,0,1.743.162,2.442.485.703.32,1.255.765,1.655,1.336.401.567.607,1.219.62,1.956h-2.282Zm10.371,5.363v-5.689h2.314v9.819h-2.244v-1.745h-.102c-.222.549-.586.999-1.093,1.348-.503.35-1.123.524-1.86.524-.644,0-1.213-.142-1.707-.428-.49-.29-.873-.709-1.15-1.259-.277-.554-.416-1.223-.416-2.007v-6.252h2.314v5.894c0,.622.17,1.116.511,1.483.341.366.789.55,1.343.55.341,0,.671-.084.99-.25.32-.166.582-.413.787-.741.209-.333.313-.748.313-1.247Zm4.333,7.811v-13.5h2.276v1.624h.134c.119-.239.288-.492.505-.761.217-.272.511-.505.882-.696.371-.196.844-.294,1.419-.294.759,0,1.443.193,2.052.581.614.384,1.099.953,1.457,1.707.363.75.544,1.67.544,2.761c0,1.078-.177,1.995-.531,2.749-.353.754-.835,1.329-1.444,1.726-.61.396-1.3.594-2.071.594-.563,0-1.03-.094-1.4-.281-.371-.188-.669-.413-.895-.678-.222-.268-.394-.522-.518-.76h-.096v5.228h-2.314Zm2.269-8.591c0,.635.09,1.192.269,1.669.183.477.445.85.786,1.118.345.265.763.397,1.253.397.511,0,.94-.137,1.285-.409.345-.277.605-.655.78-1.132.179-.481.268-1.029.268-1.643c0-.609-.087-1.15-.262-1.623s-.435-.844-.78-1.112c-.345-.269-.775-.403-1.291-.403-.494,0-.914.13-1.259.39s-.607.624-.786,1.093c-.175.469-.263,1.021-.263,1.655Zm8.621,8.591v-13.5h2.276v1.624h.134c.119-.239.288-.492.505-.761.217-.272.511-.505.882-.696.371-.196.844-.294,1.419-.294.759,0,1.443.193,2.052.581.614.384,1.099.953,1.457,1.707.363.75.544,1.67.544,2.761c0,1.078-.177,1.995-.531,2.749-.353.754-.835,1.329-1.444,1.726-.61.396-1.3.594-2.071.594-.563,0-1.03-.094-1.4-.281-.371-.188-.669-.413-.895-.678-.222-.268-.394-.522-.518-.76h-.096v5.228h-2.314Zm2.269-8.591c0,.635.09,1.192.269,1.669.183.477.445.85.786,1.118.345.265.763.397,1.253.397.511,0,.94-.137,1.285-.409.345-.277.605-.655.78-1.132.179-.481.268-1.029.268-1.643c0-.609-.087-1.15-.262-1.623s-.435-.844-.78-1.112c-.345-.269-.775-.403-1.291-.403-.494,0-.914.13-1.259.39s-.607.624-.786,1.093c-.175.469-.263,1.021-.263,1.655Zm10.935-8.181v13.091h-2.314v-13.091h2.314Zm3.458,16.772c-.315,0-.607-.025-.876-.076-.264-.047-.475-.103-.633-.167l.537-1.802c.337.098.637.145.902.141.264-.005.496-.088.696-.25.205-.157.377-.422.518-.792l.198-.531-3.56-10.023h2.454l2.263,7.415h.102l2.27-7.415h2.461l-3.932,11.007c-.183.52-.426.966-.728,1.336-.303.375-.674.661-1.112.857-.435.2-.955.3-1.56.3Z" fill="#fff"/><path d="M573.627,663.943c-.75,0-1.425-.15-2.026-.448s-1.082-.707-1.445-1.227c-.362-.52-.56-1.112-.594-1.777h1.534c.06.592.328,1.082.805,1.47.482.384,1.057.575,1.726.575.537,0,1.015-.125,1.432-.377.422-.251.752-.596.991-1.035.243-.444.364-.944.364-1.502c0-.572-.125-1.081-.377-1.528-.247-.452-.588-.808-1.023-1.068-.434-.26-.931-.392-1.489-.396-.401-.004-.812.058-1.234.185-.421.124-.769.284-1.042.48l-1.482-.179.792-6.443h6.801v1.406h-5.471l-.461,3.861h.077c.269-.213.605-.39,1.01-.531.405-.14.827-.211,1.266-.211.801,0,1.515.192,2.141.575.631.38,1.125.9,1.483,1.56.362.661.543,1.415.543,2.263c0,.835-.187,1.581-.562,2.237-.371.652-.882,1.168-1.534,1.547-.652.375-1.394.563-2.225.563Zm10.77,0c-.963,0-1.783-.263-2.46-.787-.678-.528-1.196-1.293-1.554-2.294-.358-1.006-.537-2.221-.537-3.644c0-1.415.179-2.623.537-3.624.362-1.006.882-1.773,1.56-2.301.682-.533,1.5-.799,2.454-.799.955,0,1.771.266,2.449.799.681.528,1.201,1.295,1.559,2.301.363,1.001.544,2.209.544,3.624c0,1.423-.179,2.638-.537,3.644-.358,1.001-.876,1.766-1.554,2.294-.677.524-1.497.787-2.461.787Zm0-1.407c.955,0,1.697-.46,2.225-1.38.528-.921.793-2.233.793-3.938c0-1.133-.122-2.099-.365-2.896-.238-.796-.584-1.404-1.035-1.821-.448-.418-.987-.627-1.618-.627-.946,0-1.685.467-2.218,1.4-.532.929-.799,2.244-.799,3.944c0,1.134.12,2.097.358,2.889.239.793.582,1.396,1.03,1.809.451.414.995.62,1.629.62Zm8.439-.562l-.102.69c-.073.486-.183,1.006-.333,1.56-.144.554-.296,1.076-.453,1.566-.158.49-.288.88-.39,1.17h-1.151c.056-.273.128-.633.217-1.081.09-.447.179-.948.269-1.502.094-.55.17-1.112.23-1.687l.077-.716h1.636Zm6.222,1.969c-.963,0-1.783-.263-2.461-.787-.677-.528-1.195-1.293-1.553-2.294-.358-1.006-.537-2.221-.537-3.644c0-1.415.179-2.623.537-3.624.362-1.006.882-1.773,1.56-2.301.682-.533,1.5-.799,2.454-.799.955,0,1.771.266,2.448.799.682.528,1.202,1.295,1.56,2.301.362,1.001.543,2.209.543,3.624c0,1.423-.179,2.638-.536,3.644-.358,1.001-.876,1.766-1.554,2.294-.677.524-1.498.787-2.461.787Zm0-1.407c.955,0,1.696-.46,2.225-1.38.528-.921.792-2.233.792-3.938c0-1.133-.121-2.099-.364-2.896-.239-.796-.584-1.404-1.035-1.821-.448-.418-.987-.627-1.618-.627-.946,0-1.685.467-2.218,1.4-.532.929-.799,2.244-.799,3.944c0,1.134.12,2.097.358,2.889.239.793.582,1.396,1.029,1.809.452.414.995.62,1.63.62Zm10.89,1.407c-.963,0-1.783-.263-2.461-.787-.677-.528-1.195-1.293-1.553-2.294-.358-1.006-.537-2.221-.537-3.644c0-1.415.179-2.623.537-3.624.362-1.006.882-1.773,1.56-2.301.682-.533,1.5-.799,2.454-.799.955,0,1.771.266,2.448.799.682.528,1.202,1.295,1.56,2.301.362,1.001.543,2.209.543,3.624c0,1.423-.179,2.638-.536,3.644-.358,1.001-.876,1.766-1.554,2.294-.677.524-1.498.787-2.461.787Zm0-1.407c.955,0,1.696-.46,2.225-1.38.528-.921.792-2.233.792-3.938c0-1.133-.121-2.099-.364-2.896-.239-.796-.584-1.404-1.035-1.821-.448-.418-.987-.627-1.618-.627-.946,0-1.685.467-2.218,1.4-.532.929-.799,2.244-.799,3.944c0,1.134.12,2.097.358,2.889.239.793.582,1.396,1.029,1.809.452.414.995.62,1.63.62Zm10.89,1.407c-.963,0-1.783-.263-2.461-.787-.677-.528-1.195-1.293-1.553-2.294-.358-1.006-.537-2.221-.537-3.644c0-1.415.179-2.623.537-3.624.362-1.006.882-1.773,1.56-2.301.682-.533,1.5-.799,2.454-.799.955,0,1.771.266,2.448.799.682.528,1.202,1.295,1.56,2.301.362,1.001.543,2.209.543,3.624c0,1.423-.179,2.638-.536,3.644-.358,1.001-.876,1.766-1.554,2.294-.677.524-1.498.787-2.461.787Zm0-1.407c.955,0,1.696-.46,2.225-1.38.528-.921.792-2.233.792-3.938c0-1.133-.121-2.099-.364-2.896-.239-.796-.584-1.404-1.035-1.821-.448-.418-.987-.627-1.618-.627-.946,0-1.685.467-2.218,1.4-.532.929-.799,2.244-.799,3.944c0,1.134.12,2.097.358,2.889.239.793.582,1.396,1.029,1.809.452.414.995.62,1.63.62Zm8.439-.562l-.102.69c-.073.486-.184,1.006-.333,1.56-.145.554-.296,1.076-.454,1.566-.157.49-.287.88-.389,1.17h-1.151c.055-.273.128-.633.217-1.081.09-.447.179-.948.269-1.502.094-.55.17-1.112.23-1.687l.077-.716h1.636Zm6.222,1.969c-.963,0-1.783-.263-2.461-.787-.677-.528-1.195-1.293-1.553-2.294-.358-1.006-.537-2.221-.537-3.644c0-1.415.179-2.623.537-3.624.362-1.006.882-1.773,1.56-2.301.681-.533,1.5-.799,2.454-.799.955,0,1.771.266,2.448.799.682.528,1.202,1.295,1.56,2.301.362,1.001.543,2.209.543,3.624c0,1.423-.179,2.638-.537,3.644-.358,1.001-.875,1.766-1.553,2.294-.677.524-1.498.787-2.461.787Zm0-1.407c.955,0,1.696-.46,2.225-1.38.528-.921.792-2.233.792-3.938c0-1.133-.121-2.099-.364-2.896-.239-.796-.584-1.404-1.036-1.821-.447-.418-.986-.627-1.617-.627-.946,0-1.685.467-2.218,1.4-.533.929-.799,2.244-.799,3.944c0,1.134.119,2.097.358,2.889.239.793.582,1.396,1.029,1.809.452.414.995.62,1.63.62Zm10.89,1.407c-.963,0-1.783-.263-2.461-.787-.677-.528-1.195-1.293-1.553-2.294-.358-1.006-.537-2.221-.537-3.644c0-1.415.179-2.623.537-3.624.362-1.006.882-1.773,1.56-2.301.681-.533,1.5-.799,2.454-.799.955,0,1.771.266,2.448.799.682.528,1.202,1.295,1.56,2.301.362,1.001.543,2.209.543,3.624c0,1.423-.179,2.638-.537,3.644-.358,1.001-.875,1.766-1.553,2.294-.677.524-1.498.787-2.461.787Zm0-1.407c.955,0,1.696-.46,2.225-1.38.528-.921.792-2.233.792-3.938c0-1.133-.121-2.099-.364-2.896-.239-.796-.584-1.404-1.036-1.821-.447-.418-.986-.627-1.617-.627-.946,0-1.685.467-2.218,1.4-.533.929-.799,2.244-.799,3.944c0,1.134.119,2.097.358,2.889.239.793.582,1.396,1.029,1.809.452.414.995.62,1.63.62Zm10.89,1.407c-.963,0-1.783-.263-2.461-.787-.677-.528-1.195-1.293-1.553-2.294-.358-1.006-.537-2.221-.537-3.644c0-1.415.179-2.623.537-3.624.362-1.006.882-1.773,1.56-2.301.681-.533,1.5-.799,2.454-.799.955,0,1.771.266,2.448.799.682.528,1.202,1.295,1.56,2.301.362,1.001.543,2.209.543,3.624c0,1.423-.179,2.638-.537,3.644-.358,1.001-.875,1.766-1.553,2.294-.677.524-1.498.787-2.461.787Zm0-1.407c.955,0,1.696-.46,2.225-1.38.528-.921.792-2.233.792-3.938c0-1.133-.121-2.099-.364-2.896-.239-.796-.584-1.404-1.036-1.821-.447-.418-.986-.627-1.617-.627-.946,0-1.685.467-2.218,1.4-.533.929-.799,2.244-.799,3.944c0,1.134.119,2.097.358,2.889.239.793.582,1.396,1.029,1.809.452.414.995.62,1.63.62Zm8.439-.562l-.102.69c-.073.486-.184,1.006-.333,1.56-.145.554-.296,1.076-.454,1.566-.157.49-.287.88-.39,1.17h-1.15c.055-.273.128-.633.217-1.081.09-.447.179-.948.269-1.502.093-.55.17-1.112.23-1.687l.076-.716h1.637Zm6.222,1.969c-.963,0-1.783-.263-2.461-.787-.677-.528-1.195-1.293-1.553-2.294-.358-1.006-.537-2.221-.537-3.644c0-1.415.179-2.623.537-3.624.362-1.006.882-1.773,1.56-2.301.681-.533,1.5-.799,2.454-.799.955,0,1.771.266,2.448.799.682.528,1.202,1.295,1.56,2.301.362,1.001.543,2.209.543,3.624c0,1.423-.179,2.638-.537,3.644-.358,1.001-.875,1.766-1.553,2.294-.678.524-1.498.787-2.461.787Zm0-1.407c.955,0,1.696-.46,2.224-1.38.529-.921.793-2.233.793-3.938c0-1.133-.121-2.099-.364-2.896-.239-.796-.584-1.404-1.036-1.821-.447-.418-.986-.627-1.617-.627-.946,0-1.685.467-2.218,1.4-.533.929-.799,2.244-.799,3.944c0,1.134.119,2.097.358,2.889.239.793.582,1.396,1.029,1.809.452.414.995.62,1.63.62Zm10.89,1.407c-.963,0-1.783-.263-2.461-.787-.677-.528-1.195-1.293-1.553-2.294-.358-1.006-.537-2.221-.537-3.644c0-1.415.179-2.623.537-3.624.362-1.006.882-1.773,1.56-2.301.681-.533,1.5-.799,2.454-.799.955,0,1.771.266,2.448.799.682.528,1.202,1.295,1.56,2.301.362,1.001.543,2.209.543,3.624c0,1.423-.179,2.638-.537,3.644-.358,1.001-.875,1.766-1.553,2.294-.678.524-1.498.787-2.461.787Zm0-1.407c.955,0,1.696-.46,2.224-1.38.529-.921.793-2.233.793-3.938c0-1.133-.121-2.099-.364-2.896-.239-.796-.584-1.404-1.036-1.821-.447-.418-.986-.627-1.617-.627-.946,0-1.685.467-2.218,1.4-.533.929-.799,2.244-.799,3.944c0,1.134.119,2.097.358,2.889.239.793.582,1.396,1.029,1.809.452.414.995.62,1.63.62Zm10.89,1.407c-.963,0-1.783-.263-2.461-.787-.677-.528-1.195-1.293-1.553-2.294-.358-1.006-.537-2.221-.537-3.644c0-1.415.179-2.623.537-3.624.362-1.006.882-1.773,1.56-2.301.681-.533,1.5-.799,2.454-.799.955,0,1.771.266,2.448.799.682.528,1.202,1.295,1.56,2.301.362,1.001.543,2.209.543,3.624c0,1.423-.179,2.638-.537,3.644-.358,1.001-.875,1.766-1.553,2.294-.678.524-1.498.787-2.461.787Zm0-1.407c.955,0,1.696-.46,2.224-1.38.529-.921.793-2.233.793-3.938c0-1.133-.121-2.099-.364-2.896-.239-.796-.584-1.404-1.036-1.821-.447-.418-.986-.627-1.617-.627-.946,0-1.685.467-2.218,1.4-.533.929-.799,2.244-.799,3.944c0,1.134.119,2.097.358,2.889.239.793.582,1.396,1.029,1.809.452.414.995.62,1.63.62Z" fill="#757575"/><circle r="314" transform="translate(630.763 638.764)" fill="none" stroke="url(#eVlCmdxMEUy37-stroke)" stroke-width="10" stroke-opacity="0.2" stroke-linecap="round" stroke-dasharray="50,50"/><g id="eVlCmdxMEUy38_tr" transform="translate(630.763,638.764038) rotate(-0.452821)"><circle r="314" transform="translate(0,-0.000038)" fill="none" stroke="#121a5f" stroke-width="10" stroke-opacity="0.49" stroke-linecap="round" stroke-dasharray="50,50"/></g></svg>
